<?xml version="1.0" encoding="utf-8"?>
<!-- Generator: Adobe Illustrator 24.2.1, SVG Export Plug-In . SVG Version: 6.00 Build 0)  -->
<svg version="1.1" id="Camada_1" xmlns="http://www.w3.org/2000/svg" xmlns:xlink="http://www.w3.org/1999/xlink" x="0px" y="0px"
	 viewBox="0 0 285 233" style="enable-background:new 0 0 285 233;" xml:space="preserve">
<style type="text/css">
	.st0{fill:#A45EDB;}
	.st1{fill:#E5AFA8;}
	.st2{fill:#106072;}
	.st3{fill:#1B8B9E;}
	.st4{fill:#0E4F59;}
	.st5{fill:#1C3B51;}
	.st6{clip-path:url(#SVGID_2_);fill:#FFFFFF;}
	.st7{clip-path:url(#SVGID_2_);fill:#FEFFFF;}
	.st8{clip-path:url(#SVGID_2_);fill:#FEFEFF;}
	.st9{clip-path:url(#SVGID_2_);fill:#FDFEFE;}
	.st10{clip-path:url(#SVGID_2_);fill:#FDFDFE;}
	.st11{clip-path:url(#SVGID_2_);fill:#FCFDFE;}
	.st12{clip-path:url(#SVGID_2_);fill:#FBFDFE;}
	.st13{clip-path:url(#SVGID_2_);fill:#FBFCFE;}
	.st14{clip-path:url(#SVGID_2_);fill:#FAFCFE;}
	.st15{clip-path:url(#SVGID_2_);fill:#FAFCFD;}
	.st16{clip-path:url(#SVGID_2_);fill:#F9FBFD;}
	.st17{clip-path:url(#SVGID_2_);fill:#F8FBFD;}
	.st18{clip-path:url(#SVGID_2_);fill:#F8FAFD;}
	.st19{clip-path:url(#SVGID_2_);fill:#F7FAFD;}
	.st20{clip-path:url(#SVGID_2_);fill:#F7FAFC;}
	.st21{clip-path:url(#SVGID_2_);fill:#F6F9FC;}
	.st22{clip-path:url(#SVGID_2_);fill:#F5F9FC;}
	.st23{clip-path:url(#SVGID_2_);fill:#F5F8FC;}
	.st24{clip-path:url(#SVGID_2_);fill:#F4F8FC;}
	.st25{clip-path:url(#SVGID_2_);fill:#F3F7FB;}
	.st26{clip-path:url(#SVGID_2_);fill:#F2F7FB;}
	.st27{clip-path:url(#SVGID_2_);fill:#F2F6FB;}
	.st28{clip-path:url(#SVGID_2_);fill:#F1F6FB;}
	.st29{clip-path:url(#SVGID_2_);fill:#F0F5FB;}
	.st30{clip-path:url(#SVGID_2_);fill:#F0F5FA;}
	.st31{clip-path:url(#SVGID_2_);fill:#EFF5FA;}
	.st32{clip-path:url(#SVGID_2_);fill:#EEF4FA;}
	.st33{clip-path:url(#SVGID_2_);fill:#EDF3F9;}
	.st34{clip-path:url(#SVGID_2_);fill:#ECF3F9;}
	.st35{clip-path:url(#SVGID_2_);fill:#ECF2F9;}
	.st36{clip-path:url(#SVGID_2_);fill:#EBF2F9;}
	.st37{clip-path:url(#SVGID_2_);fill:#EAF1F9;}
	.st38{clip-path:url(#SVGID_2_);fill:#E9F1F8;}
	.st39{clip-path:url(#SVGID_2_);fill:#E9F0F8;}
	.st40{clip-path:url(#SVGID_2_);fill:#E8F0F8;}
	.st41{clip-path:url(#SVGID_2_);fill:#E7EFF8;}
	.st42{clip-path:url(#SVGID_2_);fill:#E6EFF7;}
	.st43{clip-path:url(#SVGID_2_);fill:#E5EEF7;}
	.st44{clip-path:url(#SVGID_2_);fill:#E4EDF7;}
	.st45{clip-path:url(#SVGID_2_);fill:#E3EDF6;}
	.st46{clip-path:url(#SVGID_2_);fill:#E2ECF6;}
	.st47{clip-path:url(#SVGID_2_);fill:#E1EBF6;}
	.st48{clip-path:url(#SVGID_2_);fill:#E0EBF6;}
	.st49{clip-path:url(#SVGID_2_);fill:#DFEAF5;}
	.st50{clip-path:url(#SVGID_2_);fill:#DEEAF5;}
	.st51{clip-path:url(#SVGID_2_);fill:#DDE9F5;}
	.st52{clip-path:url(#SVGID_2_);fill:#DCE8F4;}
	.st53{clip-path:url(#SVGID_2_);fill:#DBE8F4;}
	.st54{clip-path:url(#SVGID_2_);fill:#DAE7F4;}
	.st55{clip-path:url(#SVGID_2_);fill:#D9E6F3;}
	.st56{clip-path:url(#SVGID_2_);fill:#D8E6F3;}
	.st57{clip-path:url(#SVGID_2_);fill:#D7E5F3;}
	.st58{clip-path:url(#SVGID_2_);fill:#D6E4F2;}
	.st59{clip-path:url(#SVGID_2_);fill:#D5E4F2;}
	.st60{clip-path:url(#SVGID_2_);fill:#D4E3F2;}
	.st61{clip-path:url(#SVGID_2_);fill:#D3E2F1;}
	.st62{clip-path:url(#SVGID_2_);fill:#D2E1F1;}
	.st63{clip-path:url(#SVGID_2_);fill:#D0E1F1;}
	.st64{clip-path:url(#SVGID_2_);fill:#CFE0F0;}
	.st65{clip-path:url(#SVGID_2_);fill:#CEDFF0;}
	.st66{clip-path:url(#SVGID_2_);fill:#CDDEF0;}
	.st67{clip-path:url(#SVGID_2_);fill:#CCDEEF;}
	.st68{clip-path:url(#SVGID_2_);fill:#CBDDEF;}
	.st69{clip-path:url(#SVGID_2_);fill:#C9DCEF;}
	.st70{clip-path:url(#SVGID_2_);fill:#C8DBEE;}
	.st71{clip-path:url(#SVGID_2_);fill:#C7DAEE;}
	.st72{clip-path:url(#SVGID_2_);fill:#C5D9ED;}
	.st73{clip-path:url(#SVGID_2_);fill:#C4D9ED;}
	.st74{clip-path:url(#SVGID_2_);fill:#C3D8ED;}
	.st75{clip-path:url(#SVGID_2_);fill:#C2D7EC;}
	.st76{clip-path:url(#SVGID_2_);fill:#C0D6EC;}
	.st77{clip-path:url(#SVGID_2_);fill:#BFD5EB;}
	.st78{clip-path:url(#SVGID_2_);fill:#BDD4EB;}
	.st79{clip-path:url(#SVGID_2_);fill:#BCD3EA;}
	.st80{clip-path:url(#SVGID_2_);fill:#BBD2EA;}
	.st81{clip-path:url(#SVGID_2_);fill:#B9D1EA;}
	.st82{clip-path:url(#SVGID_2_);fill:#B8D0E9;}
	.st83{clip-path:url(#SVGID_2_);fill:#B6D0E9;}
	.st84{clip-path:url(#SVGID_2_);fill:#B5CFE8;}
	.st85{clip-path:url(#SVGID_2_);fill:#B3CEE8;}
	.st86{clip-path:url(#SVGID_2_);fill:#B2CDE7;}
	.st87{clip-path:url(#SVGID_2_);fill:#B0CCE7;}
	.st88{clip-path:url(#SVGID_2_);fill:#AFCBE6;}
	.st89{clip-path:url(#SVGID_2_);fill:#ADCAE6;}
	.st90{clip-path:url(#SVGID_2_);fill:#ACC9E5;}
	.st91{clip-path:url(#SVGID_2_);fill:#AAC8E5;}
	.st92{clip-path:url(#SVGID_2_);fill:#A9C7E5;}
	.st93{clip-path:url(#SVGID_2_);fill:#A7C6E4;}
	.st94{clip-path:url(#SVGID_2_);fill:#A5C4E4;}
	.st95{clip-path:url(#SVGID_2_);fill:#A4C3E3;}
	.st96{clip-path:url(#SVGID_2_);fill:#A2C2E3;}
	.st97{clip-path:url(#SVGID_2_);fill:#A0C1E2;}
	.st98{clip-path:url(#SVGID_2_);fill:#9FC0E1;}
	.st99{clip-path:url(#SVGID_2_);fill:#9DBFE1;}
	.st100{clip-path:url(#SVGID_2_);fill:#9BBEE0;}
	.st101{clip-path:url(#SVGID_2_);fill:#9ABDE0;}
	.st102{clip-path:url(#SVGID_2_);fill:#98BCDF;}
	.st103{clip-path:url(#SVGID_2_);fill:#96BADF;}
	.st104{clip-path:url(#SVGID_2_);fill:#94B9DE;}
	.st105{clip-path:url(#SVGID_2_);fill:#92B8DE;}
	.st106{clip-path:url(#SVGID_2_);fill:#91B7DD;}
	.st107{clip-path:url(#SVGID_2_);fill:#8FB6DD;}
	.st108{clip-path:url(#SVGID_2_);fill:#8DB5DC;}
	.st109{clip-path:url(#SVGID_2_);fill:#8BB3DB;}
	.st110{clip-path:url(#SVGID_2_);fill:#89B2DB;}
	.st111{clip-path:url(#SVGID_2_);fill:#87B1DA;}
	.st112{clip-path:url(#SVGID_2_);fill:#85B0DA;}
	.st113{clip-path:url(#SVGID_2_);fill:#84AED9;}
	.st114{clip-path:url(#SVGID_2_);fill:#82ADD9;}
	.st115{clip-path:url(#SVGID_2_);fill:#80ACD8;}
	.st116{clip-path:url(#SVGID_2_);fill:#7EAAD7;}
	.st117{clip-path:url(#SVGID_2_);fill:#7CA9D7;}
	.st118{clip-path:url(#SVGID_2_);fill:#7AA8D6;}
	.st119{clip-path:url(#SVGID_2_);fill:#78A7D5;}
	.st120{clip-path:url(#SVGID_2_);fill:#76A5D5;}
	.st121{clip-path:url(#SVGID_2_);fill:#74A4D4;}
	.st122{clip-path:url(#SVGID_2_);fill:#71A3D4;}
	.st123{clip-path:url(#SVGID_2_);fill:#6FA1D3;}
	.st124{clip-path:url(#SVGID_2_);fill:#6DA0D2;}
	.st125{clip-path:url(#SVGID_2_);fill:#6B9ED2;}
	.st126{clip-path:url(#SVGID_2_);fill:#699DD1;}
	.st127{fill:#303030;}
	.st128{fill:#C884F4;}
	.st129{fill:#FFFFFF;}
	.st130{fill:#D69896;}
	.st131{fill:#0B2239;}
	.st132{fill:#1C717F;}
	.st133{fill:#5793CE;}
	.st134{fill:#EFEFEF;}
	.st135{fill:#CCCECE;}
	.st136{fill:#12748D;}
	.st137{fill:#1AE5BE;}
	.st138{opacity:0.2;}
	.st139{opacity:0.15;}
	.st140{fill:#00617A;}
</style>
<g>
	<path class="st0" d="M104.06,196.28c0,0-4.34-2.19-7.01,1.07c-2.67,3.26-6.48,10.96-6.6,16.17c-0.12,5.2,4.12,4.85,6.64,3.62
		c2.52-1.23,9.87-11.9,10.32-13.99c0.45-2.09-0.53-4.92-1.23-5.47C105.46,197.12,104.06,196.28,104.06,196.28z"/>
	<path class="st1" d="M105.01,195.23l0.2,4.5c0.04,0.96-0.44,1.87-1.27,2.34c-0.76,0.43-1.86,0.76-3.35,0.52
		c-3.27-0.53-3.56-1.46-3.8-5.96C96.55,192.13,105.01,195.23,105.01,195.23z"/>
	<path class="st1" d="M97.11,199.66c0,0-5,7-3,9s9.33-4.76,10.66-7.38C106.11,198.66,103.11,200.66,97.11,199.66z"/>
	<path class="st2" d="M191.79,204.06l74.56-43.18c2.45-1.42,3.59-3.33,3.51-5.32l0.02,0.01l-0.03-10.82l-4.15,4.86
		c-0.27-0.18-0.54-0.35-0.83-0.52L112.34,61.31c-6.06-3.48-15.21-3.85-20.44-0.82l-73.51,42.57c-1.49-1.63-4.61-5.07-4.61-5.07
		l0.04,10.58l0,0c-0.11,2.39,1.59,4.93,5.01,6.89l152.53,87.78C177.4,206.73,186.55,207.09,191.79,204.06z"/>
	<path class="st3" d="M112.34,61.3c-6.06-3.48-15.21-3.85-20.44-0.82l-73.51,42.57c-1.49-1.63-4.61-5.07-4.61-5.07l0.04,10.58l0,0
		c-0.11,2.39,1.59,4.93,5.01,6.89l152.53,87.78c3.16,1.82,7.16,2.78,11.01,2.86l-0.15-104.59L112.34,61.3z"/>
	<path class="st3" d="M17.3,92.79l74.56-43.18c5.24-3.03,14.39-2.67,20.44,0.82l152.53,87.78c6.06,3.48,6.72,8.77,1.48,11.8
		l-74.56,43.18c-5.24,3.03-14.39,2.67-20.44-0.82L18.79,104.59C12.73,101.1,12.07,95.82,17.3,92.79z"/>
	<path class="st4" d="M191.81,194.34l74.56-43.18c2.7-1.56,3.82-3.73,3.45-5.93c-0.13,1.79-1.28,3.49-3.51,4.78l-74.56,43.18
		c-5.24,3.03-14.39,2.67-20.44-0.82L18.79,104.59c-2.93-1.69-4.59-3.8-4.93-5.87c-0.18,2.42,1.51,5.02,4.99,7.02l152.53,87.78
		C177.43,197,186.58,197.37,191.81,194.34z"/>
	<path class="st5" d="M23.05,94.49L94.69,53c3.89-2.25,10.7-1.98,15.2,0.61l150.36,86.53c4.5,2.59,4.99,6.52,1.1,8.77L189.7,190.4
		c-3.89,2.25-10.7,1.98-15.2-0.61L24.15,103.26C19.65,100.67,19.15,96.74,23.05,94.49z"/>
	<g style="display: none;">
		<g>
			<defs>

					<ellipse id="SVGID_1_" transform="matrix(0.8869 -0.4619 0.4619 0.8869 -53.6764 72.54)" cx="121.34" cy="145.92" rx="54.94" ry="31.72"/>
			</defs>
			<clipPath id="SVGID_2_">
				<use xlink:href="#SVGID_1_"  style="overflow:visible;"/>
			</clipPath>
			<rect x="63.21" y="107" class="st6" width="116.26" height="77.83"/>

				<ellipse transform="matrix(0.8917 -0.4526 0.4526 0.8917 -52.8993 70.7132)" class="st6" cx="121.34" cy="145.92" rx="50.89" ry="27.59"/>

				<ellipse transform="matrix(0.8917 -0.4526 0.4526 0.8917 -52.8993 70.7132)" class="st6" cx="121.34" cy="145.92" rx="50.55" ry="27.41"/>

				<ellipse transform="matrix(0.8917 -0.4526 0.4526 0.8917 -52.8992 70.7131)" class="st6" cx="121.34" cy="145.92" rx="50.21" ry="27.23"/>

				<ellipse transform="matrix(0.8917 -0.4526 0.4526 0.8917 -52.8992 70.7131)" class="st6" cx="121.34" cy="145.92" rx="49.87" ry="27.04"/>

				<ellipse transform="matrix(0.8917 -0.4526 0.4526 0.8917 -52.8992 70.713)" class="st6" cx="121.34" cy="145.92" rx="49.53" ry="26.86"/>

				<ellipse transform="matrix(0.8917 -0.4526 0.4526 0.8917 -52.8992 70.7131)" class="st6" cx="121.34" cy="145.92" rx="49.19" ry="26.67"/>

				<ellipse transform="matrix(0.8917 -0.4526 0.4526 0.8917 -52.8992 70.713)" class="st6" cx="121.34" cy="145.92" rx="48.86" ry="26.49"/>

				<ellipse transform="matrix(0.8917 -0.4526 0.4526 0.8917 -52.8992 70.7131)" class="st6" cx="121.34" cy="145.92" rx="48.52" ry="26.31"/>

				<ellipse transform="matrix(0.8917 -0.4526 0.4526 0.8917 -52.8991 70.7129)" class="st6" cx="121.34" cy="145.92" rx="48.18" ry="26.12"/>

				<ellipse transform="matrix(0.8917 -0.4526 0.4526 0.8917 -52.8992 70.7131)" class="st6" cx="121.34" cy="145.92" rx="47.84" ry="25.94"/>

				<ellipse transform="matrix(0.8917 -0.4526 0.4526 0.8917 -52.8992 70.7129)" class="st6" cx="121.34" cy="145.92" rx="47.5" ry="25.75"/>

				<ellipse transform="matrix(0.8917 -0.4526 0.4526 0.8917 -52.8992 70.7131)" class="st7" cx="121.34" cy="145.92" rx="47.16" ry="25.57"/>

				<ellipse transform="matrix(0.8917 -0.4526 0.4526 0.8917 -52.8993 70.7132)" class="st7" cx="121.34" cy="145.92" rx="46.82" ry="25.39"/>

				<ellipse transform="matrix(0.8917 -0.4526 0.4526 0.8917 -52.8992 70.7131)" class="st8" cx="121.34" cy="145.92" rx="46.48" ry="25.2"/>

				<ellipse transform="matrix(0.8917 -0.4526 0.4526 0.8917 -52.8993 70.7132)" class="st8" cx="121.34" cy="145.92" rx="46.14" ry="25.02"/>

				<ellipse transform="matrix(0.8917 -0.4526 0.4526 0.8917 -52.8993 70.7132)" class="st8" cx="121.34" cy="145.92" rx="45.8" ry="24.83"/>

				<ellipse transform="matrix(0.8917 -0.4526 0.4526 0.8917 -52.8992 70.713)" class="st8" cx="121.34" cy="145.92" rx="45.46" ry="24.65"/>

				<ellipse transform="matrix(0.8917 -0.4526 0.4526 0.8917 -52.8992 70.713)" class="st8" cx="121.34" cy="145.92" rx="45.12" ry="24.47"/>

				<ellipse transform="matrix(0.8917 -0.4526 0.4526 0.8917 -52.8991 70.7128)" class="st9" cx="121.34" cy="145.92" rx="44.78" ry="24.28"/>

				<ellipse transform="matrix(0.8917 -0.4526 0.4526 0.8917 -52.8992 70.7131)" class="st9" cx="121.34" cy="145.92" rx="44.44" ry="24.1"/>

				<ellipse transform="matrix(0.8917 -0.4526 0.4526 0.8917 -52.8992 70.713)" class="st9" cx="121.34" cy="145.92" rx="44.11" ry="23.91"/>

				<ellipse transform="matrix(0.8917 -0.4526 0.4526 0.8917 -52.8992 70.7129)" class="st10" cx="121.34" cy="145.92" rx="43.77" ry="23.73"/>

				<ellipse transform="matrix(0.8917 -0.4526 0.4526 0.8917 -52.8992 70.713)" class="st11" cx="121.34" cy="145.92" rx="43.43" ry="23.55"/>

				<ellipse transform="matrix(0.8917 -0.4526 0.4526 0.8917 -52.8991 70.7129)" class="st11" cx="121.34" cy="145.92" rx="43.09" ry="23.36"/>

				<ellipse transform="matrix(0.8917 -0.4526 0.4526 0.8917 -52.8993 70.7132)" class="st11" cx="121.34" cy="145.92" rx="42.75" ry="23.18"/>

				<ellipse transform="matrix(0.8917 -0.4526 0.4526 0.8917 -52.8993 70.7133)" class="st11" cx="121.34" cy="145.92" rx="42.41" ry="23"/>

				<ellipse transform="matrix(0.8917 -0.4526 0.4526 0.8917 -52.8992 70.7132)" class="st12" cx="121.34" cy="145.92" rx="42.07" ry="22.81"/>

				<ellipse transform="matrix(0.8917 -0.4526 0.4526 0.8917 -52.8993 70.7133)" class="st13" cx="121.34" cy="145.92" rx="41.73" ry="22.63"/>

				<ellipse transform="matrix(0.8917 -0.4526 0.4526 0.8917 -52.8992 70.7131)" class="st13" cx="121.34" cy="145.92" rx="41.39" ry="22.44"/>

				<ellipse transform="matrix(0.8917 -0.4526 0.4526 0.8917 -52.8993 70.7133)" class="st14" cx="121.34" cy="145.92" rx="41.05" ry="22.26"/>

				<ellipse transform="matrix(0.8917 -0.4526 0.4526 0.8917 -52.8993 70.7134)" class="st15" cx="121.34" cy="145.92" rx="40.71" ry="22.08"/>

				<ellipse transform="matrix(0.8917 -0.4526 0.4526 0.8917 -52.8992 70.7131)" class="st15" cx="121.34" cy="145.92" rx="40.37" ry="21.89"/>

				<ellipse transform="matrix(0.8917 -0.4526 0.4526 0.8917 -52.8993 70.7132)" class="st16" cx="121.34" cy="145.92" rx="40.03" ry="21.71"/>

				<ellipse transform="matrix(0.8917 -0.4526 0.4526 0.8917 -52.8993 70.7132)" class="st16" cx="121.34" cy="145.92" rx="39.69" ry="21.52"/>

				<ellipse transform="matrix(0.8917 -0.4526 0.4526 0.8917 -52.8993 70.7132)" class="st16" cx="121.34" cy="145.92" rx="39.36" ry="21.34"/>

				<ellipse transform="matrix(0.8917 -0.4526 0.4526 0.8917 -52.8993 70.7132)" class="st17" cx="121.34" cy="145.92" rx="39.02" ry="21.16"/>

				<ellipse transform="matrix(0.8917 -0.4526 0.4526 0.8917 -52.8992 70.7131)" class="st18" cx="121.34" cy="145.92" rx="38.68" ry="20.97"/>

				<ellipse transform="matrix(0.8917 -0.4526 0.4526 0.8917 -52.8994 70.7134)" class="st19" cx="121.34" cy="145.92" rx="38.34" ry="20.79"/>

				<ellipse transform="matrix(0.8917 -0.4526 0.4526 0.8917 -52.8994 70.7134)" class="st20" cx="121.34" cy="145.92" rx="38" ry="20.6"/>

				<ellipse transform="matrix(0.8917 -0.4526 0.4526 0.8917 -52.8994 70.7135)" class="st21" cx="121.34" cy="145.92" rx="37.66" ry="20.42"/>

				<ellipse transform="matrix(0.8917 -0.4526 0.4526 0.8917 -52.8993 70.7133)" class="st21" cx="121.34" cy="145.92" rx="37.32" ry="20.24"/>

				<ellipse transform="matrix(0.8917 -0.4526 0.4526 0.8917 -52.8992 70.7131)" class="st22" cx="121.34" cy="145.92" rx="36.98" ry="20.05"/>

				<ellipse transform="matrix(0.8917 -0.4526 0.4526 0.8917 -52.8993 70.7132)" class="st23" cx="121.34" cy="145.92" rx="36.64" ry="19.87"/>

				<ellipse transform="matrix(0.8917 -0.4526 0.4526 0.8917 -52.8994 70.7134)" class="st24" cx="121.34" cy="145.92" rx="36.3" ry="19.68"/>

				<ellipse transform="matrix(0.8917 -0.4526 0.4526 0.8917 -52.8993 70.7132)" class="st24" cx="121.34" cy="145.92" rx="35.96" ry="19.5"/>

				<ellipse transform="matrix(0.8917 -0.4526 0.4526 0.8917 -52.8994 70.7134)" class="st25" cx="121.34" cy="145.92" rx="35.62" ry="19.32"/>

				<ellipse transform="matrix(0.8917 -0.4526 0.4526 0.8917 -52.8992 70.713)" class="st25" cx="121.34" cy="145.92" rx="35.28" ry="19.13"/>

				<ellipse transform="matrix(0.8917 -0.4526 0.4526 0.8917 -52.8992 70.7131)" class="st26" cx="121.34" cy="145.92" rx="34.94" ry="18.95"/>

				<ellipse transform="matrix(0.8917 -0.4526 0.4526 0.8917 -52.8993 70.7131)" class="st27" cx="121.34" cy="145.92" rx="34.61" ry="18.76"/>

				<ellipse transform="matrix(0.8917 -0.4526 0.4526 0.8917 -52.8993 70.7132)" class="st28" cx="121.34" cy="145.92" rx="34.27" ry="18.58"/>

				<ellipse transform="matrix(0.8917 -0.4526 0.4526 0.8917 -52.8994 70.7134)" class="st29" cx="121.34" cy="145.92" rx="33.93" ry="18.4"/>

				<ellipse transform="matrix(0.8917 -0.4526 0.4526 0.8917 -52.8992 70.7131)" class="st30" cx="121.34" cy="145.92" rx="33.59" ry="18.21"/>

				<ellipse transform="matrix(0.8917 -0.4526 0.4526 0.8917 -52.8993 70.7133)" class="st31" cx="121.34" cy="145.92" rx="33.25" ry="18.03"/>

				<ellipse transform="matrix(0.8917 -0.4526 0.4526 0.8917 -52.8994 70.7135)" class="st32" cx="121.34" cy="145.92" rx="32.91" ry="17.84"/>

				<ellipse transform="matrix(0.8917 -0.4526 0.4526 0.8917 -52.8993 70.7132)" class="st32" cx="121.34" cy="145.92" rx="32.57" ry="17.66"/>

				<ellipse transform="matrix(0.8917 -0.4526 0.4526 0.8917 -52.8993 70.7133)" class="st33" cx="121.34" cy="145.92" rx="32.23" ry="17.48"/>

				<ellipse transform="matrix(0.8917 -0.4526 0.4526 0.8917 -52.8993 70.7134)" class="st34" cx="121.34" cy="145.92" rx="31.89" ry="17.29"/>

				<ellipse transform="matrix(0.8917 -0.4526 0.4526 0.8917 -52.8992 70.713)" class="st35" cx="121.34" cy="145.92" rx="31.55" ry="17.11"/>

				<ellipse transform="matrix(0.8917 -0.4526 0.4526 0.8917 -52.8993 70.7133)" class="st36" cx="121.34" cy="145.92" rx="31.21" ry="16.92"/>

				<ellipse transform="matrix(0.8917 -0.4526 0.4526 0.8917 -52.8993 70.7133)" class="st37" cx="121.34" cy="145.92" rx="30.87" ry="16.74"/>

				<ellipse transform="matrix(0.8917 -0.4526 0.4526 0.8917 -52.8992 70.7131)" class="st38" cx="121.34" cy="145.92" rx="30.53" ry="16.56"/>

				<ellipse transform="matrix(0.8917 -0.4526 0.4526 0.8917 -52.8992 70.7131)" class="st39" cx="121.34" cy="145.92" rx="30.2" ry="16.37"/>

				<ellipse transform="matrix(0.8917 -0.4526 0.4526 0.8917 -52.8992 70.7131)" class="st40" cx="121.34" cy="145.92" rx="29.86" ry="16.19"/>

				<ellipse transform="matrix(0.8917 -0.4526 0.4526 0.8917 -52.8994 70.7136)" class="st41" cx="121.34" cy="145.92" rx="29.52" ry="16"/>

				<ellipse transform="matrix(0.8917 -0.4526 0.4526 0.8917 -52.8992 70.7131)" class="st42" cx="121.34" cy="145.92" rx="29.18" ry="15.82"/>

				<ellipse transform="matrix(0.8917 -0.4526 0.4526 0.8917 -52.8993 70.7134)" class="st43" cx="121.34" cy="145.92" rx="28.84" ry="15.64"/>

				<ellipse transform="matrix(0.8917 -0.4526 0.4526 0.8917 -52.8994 70.7134)" class="st43" cx="121.34" cy="145.92" rx="28.5" ry="15.45"/>

				<ellipse transform="matrix(0.8917 -0.4526 0.4526 0.8917 -52.8992 70.7131)" class="st44" cx="121.34" cy="145.92" rx="28.16" ry="15.27"/>

				<ellipse transform="matrix(0.8917 -0.4526 0.4526 0.8917 -52.8993 70.7132)" class="st45" cx="121.34" cy="145.92" rx="27.82" ry="15.08"/>

				<ellipse transform="matrix(0.8917 -0.4526 0.4526 0.8917 -52.8991 70.7128)" class="st46" cx="121.34" cy="145.92" rx="27.48" ry="14.9"/>

				<ellipse transform="matrix(0.8917 -0.4526 0.4526 0.8917 -52.8991 70.7128)" class="st47" cx="121.34" cy="145.92" rx="27.14" ry="14.72"/>

				<ellipse transform="matrix(0.8917 -0.4526 0.4526 0.8917 -52.8992 70.7129)" class="st48" cx="121.34" cy="145.92" rx="26.8" ry="14.53"/>

				<ellipse transform="matrix(0.8917 -0.4526 0.4526 0.8917 -52.8992 70.7131)" class="st49" cx="121.34" cy="145.92" rx="26.46" ry="14.35"/>

				<ellipse transform="matrix(0.8917 -0.4526 0.4526 0.8917 -52.8993 70.7132)" class="st50" cx="121.34" cy="145.92" rx="26.12" ry="14.17"/>

				<ellipse transform="matrix(0.8917 -0.4526 0.4526 0.8917 -52.8992 70.713)" class="st51" cx="121.34" cy="145.92" rx="25.78" ry="13.98"/>

				<ellipse transform="matrix(0.8917 -0.4526 0.4526 0.8917 -52.8991 70.7128)" class="st52" cx="121.34" cy="145.92" rx="25.45" ry="13.8"/>

				<ellipse transform="matrix(0.8917 -0.4526 0.4526 0.8917 -52.8993 70.7134)" class="st53" cx="121.34" cy="145.92" rx="25.11" ry="13.61"/>

				<ellipse transform="matrix(0.8917 -0.4526 0.4526 0.8917 -52.8993 70.7132)" class="st54" cx="121.34" cy="145.92" rx="24.77" ry="13.43"/>

				<ellipse transform="matrix(0.8917 -0.4526 0.4526 0.8917 -52.8993 70.7132)" class="st55" cx="121.34" cy="145.92" rx="24.43" ry="13.25"/>

				<ellipse transform="matrix(0.8917 -0.4526 0.4526 0.8917 -52.8993 70.7134)" class="st56" cx="121.34" cy="145.92" rx="24.09" ry="13.06"/>

				<ellipse transform="matrix(0.8917 -0.4526 0.4526 0.8917 -52.8992 70.713)" class="st57" cx="121.34" cy="145.92" rx="23.75" ry="12.88"/>

				<ellipse transform="matrix(0.8917 -0.4526 0.4526 0.8917 -52.8991 70.7128)" class="st58" cx="121.34" cy="145.92" rx="23.41" ry="12.69"/>

				<ellipse transform="matrix(0.8917 -0.4526 0.4526 0.8917 -52.8992 70.713)" class="st59" cx="121.34" cy="145.92" rx="23.07" ry="12.51"/>

				<ellipse transform="matrix(0.8917 -0.4526 0.4526 0.8917 -52.8992 70.713)" class="st60" cx="121.34" cy="145.92" rx="22.73" ry="12.33"/>

				<ellipse transform="matrix(0.8917 -0.4526 0.4526 0.8917 -52.8992 70.713)" class="st61" cx="121.34" cy="145.92" rx="22.39" ry="12.14"/>

				<ellipse transform="matrix(0.8917 -0.4526 0.4526 0.8917 -52.8992 70.7129)" class="st62" cx="121.34" cy="145.92" rx="22.05" ry="11.96"/>

				<ellipse transform="matrix(0.8917 -0.4526 0.4526 0.8917 -52.8992 70.7129)" class="st63" cx="121.34" cy="145.92" rx="21.71" ry="11.77"/>

				<ellipse transform="matrix(0.8917 -0.4526 0.4526 0.8917 -52.8992 70.7131)" class="st64" cx="121.34" cy="145.92" rx="21.37" ry="11.59"/>

				<ellipse transform="matrix(0.8917 -0.4526 0.4526 0.8917 -52.8993 70.7131)" class="st65" cx="121.34" cy="145.92" rx="21.03" ry="11.41"/>

				<ellipse transform="matrix(0.8917 -0.4526 0.4526 0.8917 -52.8994 70.7135)" class="st66" cx="121.34" cy="145.92" rx="20.7" ry="11.22"/>

				<ellipse transform="matrix(0.8917 -0.4526 0.4526 0.8917 -52.8992 70.7129)" class="st67" cx="121.34" cy="145.92" rx="20.36" ry="11.04"/>

				<ellipse transform="matrix(0.8917 -0.4526 0.4526 0.8917 -52.8992 70.7131)" class="st68" cx="121.34" cy="145.92" rx="20.02" ry="10.85"/>
			<path class="st69" d="M138.89,137.01c2.67,5.25-3.03,13.5-12.72,18.42c-9.69,4.92-19.71,4.65-22.38-0.61
				c-2.67-5.25,3.03-13.5,12.72-18.42C126.2,131.48,136.22,131.76,138.89,137.01z"/>

				<ellipse transform="matrix(0.8917 -0.4526 0.4526 0.8917 -52.8991 70.7129)" class="st70" cx="121.34" cy="145.92" rx="19.34" ry="10.49"/>

				<ellipse transform="matrix(0.8917 -0.4526 0.4526 0.8917 -52.8991 70.7128)" class="st71" cx="121.34" cy="145.92" rx="19" ry="10.3"/>
			<path class="st72" d="M137.98,137.47c2.53,4.98-2.87,12.8-12.06,17.47c-9.19,4.66-18.69,4.41-21.22-0.58
				c-2.53-4.98,2.87-12.8,12.06-17.47C125.95,132.23,135.45,132.49,137.98,137.47z"/>

				<ellipse transform="matrix(0.8917 -0.4526 0.4526 0.8917 -52.8991 70.7129)" class="st73" cx="121.34" cy="145.92" rx="18.32" ry="9.93"/>

				<ellipse transform="matrix(0.8917 -0.4526 0.4526 0.8917 -52.8993 70.7133)" class="st74" cx="121.34" cy="145.92" rx="17.98" ry="9.75"/>

				<ellipse transform="matrix(0.8917 -0.4526 0.4526 0.8917 -52.899 70.7126)" class="st75" cx="121.34" cy="145.92" rx="17.64" ry="9.57"/>

				<ellipse transform="matrix(0.8917 -0.4526 0.4526 0.8917 -52.8991 70.7129)" class="st76" cx="121.34" cy="145.92" rx="17.3" ry="9.38"/>
			<path class="st77" d="M136.47,138.24c2.3,4.53-2.61,11.64-10.96,15.88c-8.35,4.24-16.99,4-19.29-0.53
				c-2.3-4.53,2.61-11.64,10.96-15.88C125.53,133.47,134.17,133.71,136.47,138.24z"/>

				<ellipse transform="matrix(0.8917 -0.4526 0.4526 0.8917 -52.8993 70.7134)" class="st78" cx="121.34" cy="145.92" rx="16.62" ry="9.01"/>

				<ellipse transform="matrix(0.8917 -0.4526 0.4526 0.8917 -52.8996 70.7139)" class="st79" cx="121.34" cy="145.92" rx="16.29" ry="8.83"/>
			<path class="st80" d="M135.56,138.7c2.16,4.26-2.45,10.94-10.31,14.93c-7.85,3.99-15.97,3.76-18.13-0.49
				c-2.16-4.26,2.45-10.94,10.31-14.93C125.28,134.22,133.4,134.44,135.56,138.7z"/>

				<ellipse transform="matrix(0.8917 -0.4526 0.4526 0.8917 -52.8991 70.7128)" class="st81" cx="121.34" cy="145.92" rx="15.61" ry="8.46"/>

				<ellipse transform="matrix(0.8917 -0.4526 0.4526 0.8917 -52.8993 70.7133)" class="st82" cx="121.34" cy="145.92" rx="15.27" ry="8.28"/>

				<ellipse transform="matrix(0.8917 -0.4526 0.4526 0.8917 -52.8992 70.7131)" class="st83" cx="121.34" cy="145.92" rx="14.93" ry="8.09"/>
			<path class="st84" d="M134.35,139.31c1.98,3.9-2.24,10.01-9.43,13.66c-7.18,3.65-14.61,3.44-16.59-0.45
				c-1.98-3.9,2.24-10.01,9.43-13.66C124.95,135.22,132.37,135.42,134.35,139.31z"/>

				<ellipse transform="matrix(0.8917 -0.4526 0.4526 0.8917 -52.8989 70.7122)" class="st85" cx="121.34" cy="145.92" rx="14.25" ry="7.73"/>

				<ellipse transform="matrix(0.8917 -0.4526 0.4526 0.8917 -52.8991 70.7127)" class="st86" cx="121.34" cy="145.92" rx="13.91" ry="7.54"/>

				<ellipse transform="matrix(0.8917 -0.4526 0.4526 0.8917 -52.8991 70.7128)" class="st87" cx="121.34" cy="145.92" rx="13.57" ry="7.36"/>
			<path class="st88" d="M133.14,139.93c1.79,3.53-2.04,9.08-8.55,12.39c-6.52,3.31-13.25,3.12-15.05-0.41
				c-1.79-3.53,2.04-9.08,8.55-12.39C124.61,136.21,131.35,136.4,133.14,139.93z"/>

				<ellipse transform="matrix(0.8917 -0.4526 0.4526 0.8917 -52.8993 70.7132)" class="st89" cx="121.34" cy="145.92" rx="12.89" ry="6.99"/>
			<path class="st90" d="M132.54,140.24c1.7,3.35-1.93,8.61-8.11,11.75c-6.18,3.14-12.57,2.96-14.27-0.39
				c-1.7-3.35,1.93-8.61,8.11-11.75C124.44,136.71,130.83,136.88,132.54,140.24z"/>

				<ellipse transform="matrix(0.8917 -0.4526 0.4526 0.8917 -52.8996 70.7139)" class="st91" cx="121.34" cy="145.92" rx="12.21" ry="6.62"/>
			<path class="st92" d="M131.93,140.54c1.61,3.17-1.83,8.15-7.67,11.12c-5.85,2.97-11.89,2.8-13.5-0.37
				c-1.61-3.17,1.83-8.15,7.68-11.12C124.28,137.21,130.32,137.37,131.93,140.54z"/>
			<path class="st93" d="M131.63,140.7c1.56,3.08-1.77,7.91-7.46,10.8c-5.68,2.88-11.55,2.72-13.12-0.36
				c-1.56-3.08,1.77-7.91,7.46-10.8C124.19,137.46,130.07,137.62,131.63,140.7z"/>
			<path class="st94" d="M131.33,140.85c1.52,2.99-1.72,7.68-7.24,10.48c-5.51,2.8-11.21,2.64-12.73-0.35
				c-1.52-2.99,1.72-7.68,7.24-10.48C124.11,137.71,129.81,137.86,131.33,140.85z"/>

				<ellipse transform="matrix(0.8917 -0.4526 0.4526 0.8917 -52.8991 70.7128)" class="st95" cx="121.34" cy="145.92" rx="10.86" ry="5.89"/>
			<path class="st96" d="M130.72,141.16c1.43,2.81-1.62,7.22-6.8,9.85c-5.18,2.63-10.53,2.48-11.96-0.33
				c-1.43-2.81,1.62-7.22,6.8-9.85C123.94,138.2,129.3,138.35,130.72,141.16z"/>

				<ellipse transform="matrix(0.8917 -0.4526 0.4526 0.8917 -52.8995 70.7137)" class="st97" cx="121.34" cy="145.92" rx="10.18" ry="5.52"/>
			<path class="st98" d="M130.12,141.46c1.33,2.63-1.51,6.75-6.36,9.21c-4.85,2.46-9.85,2.32-11.19-0.3
				c-1.33-2.63,1.51-6.75,6.36-9.21C123.77,138.7,128.78,138.84,130.12,141.46z"/>

				<ellipse transform="matrix(0.8917 -0.4526 0.4526 0.8917 -52.8993 70.7133)" class="st99" cx="121.34" cy="145.92" rx="9.5" ry="5.15"/>
			<path class="st100" d="M129.51,141.77c1.24,2.45-1.41,6.29-5.92,8.57c-4.51,2.29-9.18,2.16-10.42-0.28
				c-1.24-2.45,1.41-6.29,5.92-8.57C123.61,139.2,128.27,139.33,129.51,141.77z"/>
			<path class="st101" d="M129.21,141.92c1.2,2.36-1.36,6.05-5.7,8.26s-8.84,2.08-10.03-0.27c-1.2-2.36,1.36-6.05,5.7-8.26
				C123.52,139.45,128.01,139.57,129.21,141.92z"/>

				<ellipse transform="matrix(0.8917 -0.4526 0.4526 0.8917 -52.8994 70.7136)" class="st102" cx="121.34" cy="145.92" rx="8.48" ry="4.6"/>

				<ellipse transform="matrix(0.8917 -0.4526 0.4526 0.8917 -52.8994 70.7134)" class="st103" cx="121.34" cy="145.92" rx="8.14" ry="4.42"/>
			<path class="st104" d="M128.3,142.39c1.06,2.08-1.2,5.35-5.04,7.3c-3.84,1.95-7.82,1.84-8.87-0.24c-1.06-2.08,1.2-5.35,5.04-7.3
				S127.24,140.3,128.3,142.39z"/>
			<path class="st105" d="M128,142.54c1.01,1.99-1.15,5.12-4.82,6.99c-3.68,1.87-7.48,1.76-8.49-0.23
				c-1.01-1.99,1.15-5.12,4.82-6.99C123.19,140.44,126.99,140.55,128,142.54z"/>

				<ellipse transform="matrix(0.8917 -0.4526 0.4526 0.8917 -52.8996 70.7141)" class="st106" cx="121.34" cy="145.92" rx="7.12" ry="3.86"/>
			<path class="st107" d="M127.39,142.85c0.92,1.81-1.04,4.66-4.39,6.35c-3.34,1.7-6.8,1.6-7.72-0.21
				c-0.92-1.81,1.04-4.66,4.39-6.35C123.02,140.94,126.47,141.03,127.39,142.85z"/>
			<path class="st108" d="M127.09,143c0.87,1.72-0.99,4.42-4.17,6.03c-3.17,1.61-6.46,1.52-7.33-0.2c-0.87-1.72,0.99-4.42,4.17-6.03
				C122.93,141.19,126.22,141.28,127.09,143z"/>
			<path class="st109" d="M126.79,143.15c0.83,1.63-0.94,4.19-3.95,5.72c-3.01,1.53-6.12,1.44-6.94-0.19
				c-0.83-1.63,0.94-4.19,3.95-5.72C122.85,141.44,125.96,141.52,126.79,143.15z"/>

				<ellipse transform="matrix(0.8917 -0.4526 0.4526 0.8917 -52.8997 70.7143)" class="st110" cx="121.34" cy="145.92" rx="5.77" ry="3.13"/>
			<path class="st111" d="M126.18,143.46c0.74,1.45-0.84,3.72-3.51,5.08c-2.67,1.36-5.44,1.28-6.17-0.17
				c-0.74-1.45,0.84-3.72,3.51-5.08C122.68,141.94,125.45,142.01,126.18,143.46z"/>
			<path class="st112" d="M125.88,143.61c0.69,1.36-0.78,3.49-3.29,4.76c-2.51,1.27-5.1,1.2-5.79-0.16
				c-0.69-1.36,0.78-3.49,3.29-4.76C122.6,142.18,125.19,142.25,125.88,143.61z"/>
			<path class="st113" d="M125.58,143.77c0.64,1.27-0.73,3.26-3.07,4.45c-2.34,1.19-4.76,1.12-5.4-0.15
				c-0.64-1.27,0.73-3.26,3.07-4.45C122.52,142.43,124.93,142.5,125.58,143.77z"/>
			<path class="st114" d="M125.28,143.92c0.6,1.18-0.68,3.03-2.85,4.13c-2.17,1.1-4.42,1.04-5.02-0.14
				c-0.6-1.18,0.68-3.03,2.85-4.13C122.43,142.68,124.68,142.74,125.28,143.92z"/>
			<path class="st115" d="M124.97,144.07c0.55,1.09-0.63,2.79-2.63,3.81c-2.01,1.02-4.08,0.96-4.63-0.13
				c-0.55-1.09,0.63-2.79,2.63-3.81C122.35,142.93,124.42,142.99,124.97,144.07z"/>
			<path class="st116" d="M124.67,144.23c0.51,1-0.57,2.56-2.41,3.49c-1.84,0.93-3.74,0.88-4.24-0.12c-0.51-1,0.57-2.56,2.41-3.49
				C122.26,143.18,124.16,143.23,124.67,144.23z"/>
			<path class="st117" d="M124.37,144.38c0.46,0.91-0.52,2.33-2.19,3.18c-1.67,0.85-3.4,0.8-3.86-0.11
				c-0.46-0.91,0.52-2.33,2.19-3.18C122.18,143.43,123.91,143.48,124.37,144.38z"/>
			<path class="st118" d="M124.06,144.54c0.41,0.82-0.47,2.1-1.97,2.86c-1.5,0.76-3.06,0.72-3.47-0.09
				c-0.41-0.82,0.47-2.1,1.97-2.86C122.1,143.68,123.65,143.72,124.06,144.54z"/>
			<path class="st119" d="M123.76,144.69c0.37,0.72-0.42,1.86-1.75,2.54c-1.34,0.68-2.72,0.64-3.09-0.08
				c-0.37-0.72,0.42-1.86,1.75-2.54C122.01,143.93,123.39,143.96,123.76,144.69z"/>
			<path class="st120" d="M123.46,144.84c0.32,0.63-0.37,1.63-1.54,2.22c-1.17,0.59-2.38,0.56-2.7-0.07
				c-0.32-0.63,0.37-1.63,1.54-2.22C121.93,144.18,123.14,144.21,123.46,144.84z"/>
			<path class="st121" d="M123.16,145c0.28,0.54-0.31,1.4-1.32,1.91c-1,0.51-2.04,0.48-2.31-0.06c-0.28-0.54,0.31-1.4,1.32-1.91
				C121.85,144.42,122.88,144.45,123.16,145z"/>
			<path class="st122" d="M122.85,145.15c0.23,0.45-0.26,1.16-1.1,1.59c-0.84,0.42-1.7,0.4-1.93-0.05c-0.23-0.45,0.26-1.16,1.1-1.59
				C121.76,144.67,122.62,144.7,122.85,145.15z"/>
			<path class="st123" d="M122.55,145.3c0.18,0.36-0.21,0.93-0.88,1.27c-0.67,0.34-1.36,0.32-1.54-0.04
				c-0.18-0.36,0.21-0.93,0.88-1.27C121.68,144.92,122.37,144.94,122.55,145.3z"/>
			<path class="st124" d="M122.25,145.46c0.14,0.27-0.16,0.7-0.66,0.95c-0.5,0.25-1.02,0.24-1.16-0.03
				c-0.14-0.27,0.16-0.7,0.66-0.95C121.59,145.17,122.11,145.18,122.25,145.46z"/>
			<path class="st125" d="M121.95,145.61c0.09,0.18-0.1,0.47-0.44,0.64s-0.68,0.16-0.77-0.02c-0.09-0.18,0.1-0.47,0.44-0.64
				C121.51,145.42,121.86,145.43,121.95,145.61z"/>
			<path class="st126" d="M121.64,145.76c0.05,0.09-0.05,0.23-0.22,0.32c-0.17,0.08-0.34,0.08-0.39-0.01
				c-0.05-0.09,0.05-0.23,0.22-0.32C121.43,145.67,121.6,145.67,121.64,145.76z"/>
		</g>
	</g>
	<path class="st0" d="M89.09,188.21c0,0-4.34-2.19-7.01,1.07c-2.67,3.26-6.48,10.96-6.6,16.17c-0.12,5.2,4.12,4.85,6.64,3.62
		c2.52-1.23,9.87-11.9,10.32-13.99c0.45-2.09-0.53-4.92-1.23-5.47C90.49,189.05,89.09,188.21,89.09,188.21z"/>
	<path class="st1" d="M90.04,187.16l0.2,4.5c0.04,0.96-0.44,1.87-1.27,2.34c-0.76,0.43-1.86,0.76-3.35,0.52
		c-3.27-0.53-3.56-1.46-3.8-5.96C81.59,184.07,90.04,187.16,90.04,187.16z"/>
	<path class="st127" d="M128.8,104.54c-1.29-20.92-22.65,3.08-22.65,3.08l-14.63,14.34l-13.17,14.47
		c-2.57,2.83-3.77,6.64-3.27,10.43l5.33,40.57c0.26,2,1.98,3.48,4,3.47c0.57,0,1.22-0.06,1.97-0.17c4.75-0.74,4.4-5.26,4.4-5.26
		l-0.97-37.94l27.66-16.67C117.46,130.83,130.08,125.46,128.8,104.54z"/>
	<path class="st127" d="M144.7,112.51c-1.29-20.92-22.65,3.08-22.65,3.08l-14.63,14.34l-13.17,14.47
		c-2.57,2.83-3.77,6.64-3.27,10.43l5.33,40.57c0.26,2,1.98,3.48,4,3.47c0.57,0,1.22-0.06,1.97-0.17c4.75-0.74,4.4-5.26,4.4-5.26
		l-0.95-36.85l27.63-17.76C133.36,138.8,145.99,133.43,144.7,112.51z"/>
	<path class="st128" d="M132.06,44.36c16.2,6.72,15.88,16.29,15.88,16.29s-10.35,12.93-10.99,29.82c-0.34,9.01,8.52,20.58,8.9,28.74
		c0.45,9.8-52.08,10.55-44.24-15.6c2.09-6.98,7.53-13.65,8.56-19.85c3.51-21.19-2.8-34.8,0.54-37.71
		C115.02,42.28,127.87,42.62,132.06,44.36z"/>
	<path class="st1" d="M137.27,53.85c-0.85,3.29-5.16,5.02-9.63,3.87c-4.47-1.15-7.4-4.75-6.56-8.04c0.85-3.29,5.16-5.02,9.63-3.87
		C135.18,46.96,138.12,50.56,137.27,53.85z"/>
	<path class="st129" d="M130.38,58.85c-0.95,0-1.94-0.12-2.93-0.38c-2.32-0.6-4.34-1.83-5.68-3.48c-1.4-1.71-1.91-3.67-1.43-5.5
		c0.95-3.7,5.69-5.69,10.57-4.43c4.87,1.26,8.07,5.29,7.11,8.98v0C137.26,56.99,134.1,58.85,130.38,58.85z M127.94,46.23
		c-3.01,0-5.52,1.4-6.1,3.65c-0.35,1.35,0.06,2.82,1.14,4.14c1.13,1.39,2.86,2.44,4.87,2.96c4.05,1.04,7.94-0.44,8.68-3.31
		c0.74-2.87-1.95-6.05-6-7.1C129.64,46.33,128.77,46.23,127.94,46.23z"/>
	<path class="st1" d="M125.56,44.63c0,0,0.14,0.65-0.14,5.78c-0.09,1.61,5.56,3.12,7.02,1.66c1.46-1.46,0.88-2.98,1.23-8.47
		C134.02,38.11,125.56,44.63,125.56,44.63z"/>
	<path class="st130" d="M133.67,43.6c0,0-1.39,5.09-8.25,7.05l0.1-4.63L133.67,43.6z"/>
	<circle class="st1" cx="125.95" cy="33.78" r="12.47"/>
	<path class="st130" d="M128.81,34.24c0,0-6.87,2.94-11.62,2.97c-4.75,0.03-3.71-3.95-3.71-3.95l14.11-2.04L128.81,34.24z"/>
	<path class="st131" d="M115.77,35.01c0,0,5.98-2.54,11.23-1.48c1.23,0.25,2.38,0.91,3.17,1.88c0.26,0.32,0.59,0.61,0.96,0.69
		c0.93,0.21,2.45-3.65,4.26-3.74c1.81-0.09,3.02,1.19,1.53,3.57c-1.48,2.37-0.98,5.03-0.3,5.41c0.68,0.38,9.13-5.51,2.74-18.16
		c-0.57-1.12-1.22-2.09-1.94-2.92c-7.42-8.49-22.09-2.34-24.39,0c0,0-0.13,0.11-0.36,0.27c-3.41,2.32-5.15,6.5-4.02,10.47
		C109.57,34.23,111.57,36.56,115.77,35.01z"/>
	<path class="st1" d="M138.85,87.3v9.49c0,1.09-0.46,2.12-1.26,2.86l-19.49,17.77l2.21,3.39l26.85-17.61
		c1.2-0.87,1.98-2.21,2.13-3.69l1.84-17.61L138.85,87.3z"/>
	<path class="st128" d="M146.56,56.91c0,0,5.91,8.89,8.11,32.3c0,0-10.1,3.27-15.83,1.41C133.11,88.76,146.56,56.91,146.56,56.91z"
		/>
	<path class="st0" d="M137.77,68.15c0,0-2.31,12.39-2.45,18.21c-0.04,1.6,0.94,3.04,2.45,3.59l0,0V68.15z"/>
	<path class="st132" d="M132.71,129.75l-4.31-0.57l-27.8-16.05c-0.89-0.51-2.45-0.45-3.48,0.14l-19.7,11.37l-2.6-0.34v2.59l0,0
		c-0.02,0.34,0.18,0.67,0.6,0.91L106.92,146c0.89,0.51,2.45,0.45,3.48-0.14l21.46-12.38c0.58-0.33,0.87-0.77,0.85-1.17l0,0V129.75z"
		/>
	<path class="st3" d="M111.82,119.61l-1.98-1.14H88.12l-10.71,6.18l-2.6-0.34v2.59l0,0c-0.02,0.34,0.18,0.67,0.6,0.91L106.92,146
		c0.47,0.27,1.13,0.38,1.79,0.34L111.82,119.61z"/>
	<path class="st133" d="M75.97,124.45l-1.16-0.15v2.59l0,0c-0.02,0.34,0.18,0.67,0.6,0.91l0.56,0.32V124.45z"/>
	<path class="st2" d="M107.24,146.15c0.84,0.32,2.05,0.25,2.95-0.18v-4.41h-2.95V146.15z"/>
	<path class="st134" d="M106.92,143.41l-31.51-18.19c-0.89-0.51-0.78-1.41,0.25-2.01l21.46-12.38c1.03-0.59,2.59-0.66,3.48-0.14
		l31.51,18.19c0.89,0.51,0.78,1.41-0.25,2.01l-21.46,12.38C109.37,143.86,107.82,143.92,106.92,143.41z"/>
	<path class="st135" d="M106.39,140.65l-26.2-15.13c-0.74-0.43-0.65-1.18,0.21-1.67l11.5-6.47c0.86-0.49,2.15-0.55,2.89-0.12
		l26.2,15.13c0.74,0.43,0.65,1.18-0.21,1.67l-11.5,6.47C108.43,141.02,107.13,141.08,106.39,140.65z"/>
	<path class="st1" d="M98.34,110.22l-0.33,2.17c-0.28,1.85-0.23,3.74,0.14,5.57l0.39,1.92c0.22,1.08,1.07,1.92,2.16,2.12l0,0
		c0.85,0.15,1.65-0.44,1.74-1.3l0.52-4.65c0,0,1.19,1.56,1.76,1.56c0.57,0-0.64-4.65-1.94-7.29
		C101.49,107.7,98.34,110.22,98.34,110.22z"/>
	<path class="st1" d="M109.02,75.67l-3.38,6.69c-0.8,1.58-1.27,3.31-1.38,5.08l-1.47,22.89l-4.45-0.11l-2.02-25.71
		c-0.06-0.79-0.02-1.59,0.11-2.38l2.31-13.04L109.02,75.67z"/>
	<path class="st2" d="M105.86,145.15l-2.64-3.45l-27.79-16.09c-0.89-0.52-1.61-1.9-1.61-3.09l0.02-22.75l-1.6-2.09l1.5-0.87l0,0
		c0.29-0.19,0.67-0.18,1.09,0.06l31.49,18.23c0.89,0.52,1.61,1.9,1.61,3.09l-0.03,24.77c0,0.67-0.23,1.13-0.59,1.32l0,0
		L105.86,145.15z"/>
	<path class="st132" d="M86.64,132.11l-1.97-1.14l-10.84-18.82l0.01-12.36l-1.6-2.09l1.5-0.87l0,0c0.29-0.19,0.67-0.18,1.09,0.06
		l31.49,18.23c0.47,0.27,0.89,0.79,1.19,1.39L86.64,132.11z"/>
	<path class="st2" d="M72.95,98.62l-0.71-0.93l1.5-0.87l0,0c0.29-0.19,0.67-0.18,1.09,0.06l0.55,0.32L72.95,98.62z"/>
	<path class="st3" d="M106.61,115.33c0.7,0.57,1.24,1.65,1.32,2.65l-3.08,1.78l-1.47-2.56L106.61,115.33z"/>
	<path class="st136" d="M104.83,115.99L73.34,97.76c-0.89-0.52-1.61,0.03-1.62,1.22l-0.03,24.77c0,1.19,0.72,2.57,1.61,3.09
		l31.49,18.23c0.89,0.52,1.61-0.03,1.62-1.22l0.03-24.77C106.44,117.89,105.72,116.51,104.83,115.99z"/>
	<path class="st1" d="M120.31,120.8l-0.5,1.05c-0.58,1.2-1.49,2.22-2.63,2.92l-3.13,1.93c-0.97,0.6-2.21,0.65-3.19,0.07
		c-0.04-0.02-0.07-0.04-0.11-0.06c-0.99-0.62-1.08-2.05-0.27-2.89l3.27-3.36c0,0-1.84,1.41-2.35,0.84
		c-0.38-0.42,1.78-2.44,3.44-2.51c1.66-0.07,3.26-1.37,3.26-1.37L120.31,120.8z"/>
	<path class="st128" d="M112.02,45c0,0-11.98,13.04-16.82,25c0,0,4.1,7.38,14.13,10.28C119.36,83.17,112.02,45,112.02,45z"/>
	<path class="st129" d="M121,42.37l-3.22-0.88c0,0,1.54,2.42,3.78,3.03c2.24,0.62,2.59-1.28,2.59-1.28L121,42.37z"/>
	<path class="st4" d="M232.57,177.48l-5.23,3.02c-0.69,0.4-1.26-0.02-1.26-0.95l0,0c0-0.93,0.56-2,1.26-2.4l5.23-3.02
		c0.69-0.4,1.26,0.02,1.26,0.95v0C233.83,176,233.27,177.08,232.57,177.48z"/>
	<g>
		<path class="st131" d="M229.13,94.3l-39.99-23.09c-0.79-0.46-1.51-0.47-2.07-0.17c0,0,0-0.03,0-0.03l-3.88,2.24
			c0,0,1.72,0.63,2.73,1v29.12c0,2.37,1.44,5.12,3.22,6.15l38.22,22.07v3.42l3.92-2.26l-0.02-0.01c0.66-0.4,1.09-1.29,1.09-2.56
			v-29.73C232.35,98.08,230.91,95.33,229.13,94.3z"/>
		<path class="st131" d="M225.18,134.89l-39.99-23.09c-1.78-1.03-3.22-3.78-3.22-6.15V75.92c0-2.37,1.44-3.46,3.22-2.43l39.99,23.09
			c1.78,1.03,3.22,3.78,3.22,6.15v29.73C228.4,134.83,226.96,135.92,225.18,134.89z"/>
		<path class="st137" d="M226.16,96.12l-39.99-23.09c-0.97-0.56-1.84-0.47-2.43,0.1c0.44-0.04,0.92,0.06,1.45,0.36l39.99,23.09
			c1.78,1.03,3.22,3.78,3.22,6.15v29.73c0,1.07-0.3,1.86-0.79,2.33c1.05-0.1,1.77-1.12,1.77-2.79v-29.73
			C229.38,99.9,227.94,97.15,226.16,96.12z"/>
		<g>
			<g>
				<g>
					<g>
						<path class="st134" d="M201.61,101.85c-0.16-0.08-0.29-0.02-0.3,0.13c-0.01,0.15,0.11,0.33,0.26,0.41l0.95,0.47
							c0.16,0.08,0.29,0.02,0.3-0.13c0.01-0.15-0.11-0.33-0.27-0.41L201.61,101.85z M201.61,101.85"/>
						<path class="st134" d="M206.26,102.03c0.01-0.15-0.11-0.33-0.27-0.41l-7.92-3.8c-0.16-0.07-0.29-0.02-0.3,0.13
							c-0.01,0.14,0.11,0.32,0.26,0.4l7.92,3.83C206.12,102.25,206.25,102.18,206.26,102.03L206.26,102.03z M206.26,102.03"/>
						<path class="st134" d="M197.93,100.04c-0.16-0.08-0.29-0.02-0.3,0.12c-0.01,0.14,0.11,0.32,0.26,0.4l2.47,1.22
							c0.16,0.08,0.29,0.02,0.3-0.13c0.01-0.15-0.11-0.33-0.27-0.4L197.93,100.04z M197.93,100.04"/>
					</g>
				</g>
				<g>
					<g>
						<path class="st134" d="M201.51,109.34c-0.02-0.08-0.03-0.17-0.04-0.25l-4.85-2.54l-0.01,0c-0.9-0.48-1.58-1.52-1.53-2.34
							l0.79-12.92c0.05-0.83,0.82-1.18,1.71-0.79l6.49,2.85l-0.14,2.55c-0.06,1.16,0.86,2.56,2.06,3.12l0.01,0.01l2.64,1.22
							l-0.23,4.6c0.19,0.1,0.38,0.2,0.56,0.32l0.25-4.87l0-0.08c0-0.07-0.02-0.16-0.07-0.24l-4.56-6.87
							c-0.04-0.06-0.1-0.12-0.17-0.15l-0.1-0.05c-0.01,0-0.02-0.01-0.03-0.01l-6.67-2.91c-1.2-0.53-2.24-0.05-2.3,1.07l-0.79,12.88
							c-0.03,0.53,0.17,1.16,0.56,1.75c0.39,0.59,0.93,1.09,1.51,1.4l0.01,0.01l5,2.63C201.56,109.59,201.54,109.46,201.51,109.34z
							 M208.28,99.51l-2.25-1.04c-0.9-0.41-1.59-1.45-1.54-2.32l0.12-2.17L208.28,99.51z"/>
					</g>
				</g>
				<path class="st137" d="M212.08,108.01c-2.09-2.75-5.1-4.32-7.48-3.98c-2.39,0.31-3.63,2.43-3.08,5.31
					c0.59,3.08,3.04,6.37,5.99,7.99c2.77,1.52,5.33,1.12,6.36-1.02C214.89,114.15,214.17,110.79,212.08,108.01z M207.53,116.66
					c-3.2-1.75-5.64-5.62-5.45-8.63c0.19-3.01,2.91-4.19,6.09-2.62c3.18,1.57,5.63,5.44,5.46,8.64
					C213.46,117.25,210.73,118.42,207.53,116.66z"/>
				<g>
					<path class="st137" d="M203.75,109.15c0.07-1.17,1.1-1.59,2.35-0.95c0.65,0.33,1.24,0.91,1.6,1.56
						c0.07,0.14,0.1,0.23,0.09,0.32c-0.01,0.16-0.16,0.23-0.33,0.14c-0.1-0.05-0.19-0.14-0.26-0.27c-0.29-0.52-0.67-0.9-1.13-1.14
						c-0.88-0.45-1.56-0.15-1.61,0.71c-0.05,0.86,0.56,1.84,1.44,2.3c0.46,0.24,0.86,0.27,1.19,0.07c0.08-0.05,0.17-0.04,0.28,0.01
						c0.17,0.09,0.31,0.3,0.3,0.46c0,0.08-0.04,0.14-0.13,0.2c-0.4,0.25-1.02,0.19-1.68-0.16
						C204.6,111.75,203.68,110.33,203.75,109.15z"/>
					<path class="st137" d="M212.2,111.66c0,0.06-0.03,0.11-0.06,0.16l-1.73,2.79c-0.07,0.12-0.19,0.14-0.34,0.05
						c-0.15-0.08-0.25-0.21-0.31-0.4l-1.33-4.35c-0.03-0.09-0.04-0.16-0.04-0.21c0.01-0.18,0.17-0.24,0.35-0.15
						c0.15,0.08,0.26,0.22,0.31,0.4l1.09,3.67l1.42-2.38c0.07-0.12,0.18-0.15,0.33-0.07C212.07,111.26,212.21,111.48,212.2,111.66z"
						/>
				</g>
			</g>
		</g>
	</g>
	<g>
		<g class="st138">
			<path class="st131" d="M192.35,158.22l-40.17-22.76c-0.8-0.45-1.17-1.06-1.19-1.7c0,0-0.02,0.02-0.02,0.02l-0.03-4.48
				c0,0,1.41,1.16,2.24,1.84l25.1-14.76c2.04-1.2,5.14-1.36,6.93-0.34l38.4,21.76l2.95-1.73l0.04,4.52l-0.02-0.01
				c-0.01,0.78-0.56,1.59-1.66,2.24l-25.63,15.07C197.24,159.08,194.14,159.23,192.35,158.22z"/>
			<path class="st131" d="M225.33,134.24l-40.17-22.76c-1.79-1.01-4.89-0.86-6.93,0.34l-25.63,15.07c-2.04,1.2-2.25,2.99-0.47,4.01
				l40.17,22.76c1.79,1.01,4.89,0.86,6.93-0.34l25.63-15.07C226.91,137.04,227.12,135.25,225.33,134.24z"/>
			<path class="st137" d="M192.41,154.74l-40.17-22.76c-0.98-0.55-1.34-1.34-1.14-2.14c0.18,0.4,0.52,0.77,1.04,1.07l40.17,22.76
				c1.78,1.01,4.89,0.86,6.93-0.34l25.63-15.07c0.92-0.54,1.45-1.21,1.61-1.86c0.44,0.95-0.07,2.09-1.51,2.94l-25.63,15.07
				C197.3,155.59,194.2,155.75,192.41,154.74z"/>
		</g>
		<g class="st139">
			<g>
				<g>
					<g>
						<path class="st134" d="M187.47,132.18c0.13,0.09,0.31,0.09,0.38-0.01c0.08-0.09,0.03-0.24-0.11-0.33l-0.82-0.54
							c-0.13-0.09-0.3-0.08-0.38,0.01c-0.08,0.09-0.03,0.24,0.1,0.33L187.47,132.18z M186.65,131.64"/>
						<path class="st134" d="M189.58,135.63c0.08-0.09,0.03-0.25-0.11-0.35l-6.86-4.56c-0.13-0.08-0.3-0.07-0.38,0.01
							c-0.08,0.09-0.03,0.22,0.1,0.3l6.86,4.58C189.33,135.72,189.51,135.73,189.58,135.63L189.58,135.63z M189.58,135.63"/>
						<path class="st134" d="M185.61,130.97c0.13,0.08,0.3,0.08,0.38-0.01c0.08-0.09,0.03-0.24-0.1-0.32l-2.09-1.28
							c-0.13-0.08-0.3-0.07-0.37,0.02c-0.08,0.09-0.03,0.23,0.1,0.3L185.61,130.97z M183.52,129.68"/>
					</g>
				</g>
				<g>
					<g>
						<path class="st134" d="M190.84,126.71l-4.15-2.42l-0.01,0c-0.47-0.26-1.03-0.35-1.56-0.26c-0.53,0.08-0.98,0.34-1.26,0.7
							l-7.1,7.75c-0.64,0.58-0.34,1.54,0.67,2.18l5.78,3.97c0.01,0.01,0.02,0.01,0.03,0.02l0.09,0.06c0.06,0.04,0.13,0.06,0.19,0.07
							l6.81,0.72c0.07,0.01,0.14-0.01,0.18-0.06l0.04-0.05l2.43-2.98c-0.18-0.11-0.36-0.23-0.53-0.36l-2.31,2.82l-2.38-1.81
							l-0.01-0.01c-1.07-0.78-2.43-0.85-3.05-0.21l-1.37,1.37l-5.61-3.83c-0.76-0.48-0.98-1.2-0.5-1.63l7.09-7.79
							c0.43-0.56,1.36-0.71,2.1-0.31l0.01,0l4.03,2.36c0.05-0.04,0.1-0.09,0.15-0.13C190.69,126.82,190.76,126.76,190.84,126.71z
							 M184.05,138.37l1.17-1.17c0.46-0.48,1.48-0.42,2.28,0.17l2.03,1.54L184.05,138.37z"/>
					</g>
				</g>
				<path class="st137" d="M201.78,134.26c0.3-2.67-1.19-5.7-3.64-7.4c-2.55-1.66-5.61-1.57-7.53,0.02
					c-1.83,1.41-2.25,3.78-0.98,6.07c1.3,2.4,4.08,4.38,6.89,4.87C199.34,138.32,201.46,136.9,201.78,134.26z M200.55,135.58
					c-1.44,2.3-5.04,2.13-7.94-0.1c-2.83-2.04-3.84-5.16-2.35-7.23c1.45-2.17,4.81-2.66,7.58-0.85
					C200.68,129.37,201.94,133.16,200.55,135.58z"/>
				<g>
					<path class="st137" d="M194.89,128.87c0.58,0.39,0.99,0.96,1.12,1.52c0.03,0.13,0.02,0.21-0.02,0.26
						c-0.07,0.12-0.26,0.13-0.42,0.02c-0.1-0.07-0.16-0.16-0.18-0.27c-0.11-0.45-0.37-0.82-0.77-1.1c-0.77-0.51-1.63-0.42-2.04,0.2
						c-0.41,0.61-0.15,1.44,0.62,1.97c0.41,0.29,0.84,0.41,1.29,0.34c0.11-0.01,0.21,0.01,0.3,0.08c0.15,0.11,0.22,0.3,0.14,0.41
						c-0.04,0.06-0.1,0.09-0.22,0.12c-0.55,0.07-1.22-0.13-1.8-0.53c-1.1-0.76-1.5-1.96-0.94-2.78
						C192.53,128.27,193.8,128.15,194.89,128.87z"/>
					<path class="st137" d="M198.13,135.76c-0.14-0.11-0.2-0.24-0.19-0.4l0.24-3.07l-2.52,1.34c-0.12,0.07-0.26,0.05-0.4-0.05
						c-0.17-0.12-0.23-0.32-0.15-0.44c0.03-0.04,0.07-0.07,0.13-0.1l3-1.58c0.12-0.07,0.26-0.06,0.39,0.04
						c0.14,0.1,0.2,0.23,0.19,0.39l-0.21,3.7c0,0.07-0.01,0.13-0.04,0.17C198.5,135.9,198.3,135.9,198.13,135.76z"/>
				</g>
			</g>
		</g>
	</g>
	<g>
		<polygon class="st137" points="159.15,161.35 209.71,132.16 206.48,130.3 155.93,159.49 		"/>
		<polygon class="st137" points="194.33,152.84 219.93,138.06 216.7,136.2 191.1,150.98 		"/>
		<polygon class="st137" points="181.91,160.01 190.21,155.22 186.98,153.36 178.68,158.15 		"/>
		<polygon class="st140" points="169.37,167.25 177.68,162.46 174.45,160.59 166.15,165.39 		"/>
		<polygon class="st140" points="194.04,147.11 214.82,135.11 211.59,133.25 190.82,145.24 		"/>
		<polygon class="st137" points="168.68,161.75 189.46,149.75 186.23,147.89 165.46,159.88 		"/>
		<path class="st136" d="M184.06,136.11c1.04,0.6,2.73,0.6,3.76,0c1.04-0.6,1.04-1.57,0-2.17c-1.04-0.6-2.73-0.6-3.76,0
			C183.03,134.53,183.03,135.51,184.06,136.11z"/>
		<path class="st137" d="M178.44,139.36c1.04,0.6,2.73,0.6,3.76,0c1.04-0.6,1.04-1.57,0-2.17c-1.04-0.6-2.73-0.6-3.76,0
			C177.4,137.78,177.4,138.76,178.44,139.36z"/>
		<path class="st136" d="M172.81,142.6c1.04,0.6,2.73,0.6,3.76,0s1.04-1.57,0-2.17s-2.73-0.6-3.76,0
			C171.77,141.03,171.77,142,172.81,142.6z"/>
		<path class="st137" d="M167.19,145.85c1.04,0.6,2.73,0.6,3.76,0s1.04-1.57,0-2.17s-2.73-0.6-3.76,0S166.15,145.25,167.19,145.85z"
			/>
		<path class="st140" d="M161.56,149.1c1.04,0.6,2.73,0.6,3.76,0s1.04-1.57,0-2.17c-1.04-0.6-2.73-0.6-3.76,0
			S160.52,148.5,161.56,149.1z"/>
	</g>
	<circle class="st128" cx="112.14" cy="67.59" r="7"/>
	<path class="st0" d="M113.14,56.59l-1,3c0,0-5.63,1.79-6.81,6.39c-1.19,4.61,2.81,8.61,6.81,8.61l-1.51,5.84l-1.62-0.25
		c0,0,1.12-2.59,0.12-3.59s-6-5-5-10C105.57,59.45,111.14,60.59,113.14,56.59"/>
	<path class="st131" d="M136.25,23.77c0,0-0.35-8.24,9.7-6c7.92,1.76,7.48,12.47,6.94,16.94c-0.21,1.72,0.36,3.49,1.67,4.63
		c1.23,1.07,2.95,1.6,4.92-0.55c3.94-4.3,1.67,8.8-5.97,8.02C146.33,46.08,137.92,39.96,136.25,23.77z"/>
	<path class="st1" d="M82.14,191.59c0,0-5,7-3,9s9.33-4.76,10.66-7.38C91.14,190.59,88.14,192.59,82.14,191.59z"/>
	<path class="st0" d="M118.14,70.59c0,0,0.76,1.76,3,4c2,2,5,4,8,4S120.14,83.59,118.14,70.59z"/>
</g>
</svg>
