<?xml version="1.0" encoding="utf-8"?>
<!-- Generator: Adobe Illustrator 24.2.1, SVG Export Plug-In . SVG Version: 6.00 Build 0)  -->
<svg version="1.1" id="Camada_1" xmlns="http://www.w3.org/2000/svg" xmlns:xlink="http://www.w3.org/1999/xlink" x="0px" y="0px"
	 viewBox="0 0 285 233" style="enable-background:new 0 0 285 233;" xml:space="preserve">
<style type="text/css">
	.st0{fill:#106072;}
	.st1{fill:#1B8B9E;}
	.st2{fill:#0E4F59;}
	.st3{fill:#1C3B51;}
	.st4{clip-path:url(#SVGID_2_);fill:#FFFFFF;}
	.st5{clip-path:url(#SVGID_2_);fill:#FEFFFF;}
	.st6{clip-path:url(#SVGID_2_);fill:#FEFEFF;}
	.st7{clip-path:url(#SVGID_2_);fill:#FDFEFE;}
	.st8{clip-path:url(#SVGID_2_);fill:#FDFDFE;}
	.st9{clip-path:url(#SVGID_2_);fill:#FCFDFE;}
	.st10{clip-path:url(#SVGID_2_);fill:#FBFDFE;}
	.st11{clip-path:url(#SVGID_2_);fill:#FBFCFE;}
	.st12{clip-path:url(#SVGID_2_);fill:#FAFCFE;}
	.st13{clip-path:url(#SVGID_2_);fill:#FAFCFD;}
	.st14{clip-path:url(#SVGID_2_);fill:#F9FBFD;}
	.st15{clip-path:url(#SVGID_2_);fill:#F8FBFD;}
	.st16{clip-path:url(#SVGID_2_);fill:#F8FAFD;}
	.st17{clip-path:url(#SVGID_2_);fill:#F7FAFD;}
	.st18{clip-path:url(#SVGID_2_);fill:#F7FAFC;}
	.st19{clip-path:url(#SVGID_2_);fill:#F6F9FC;}
	.st20{clip-path:url(#SVGID_2_);fill:#F5F9FC;}
	.st21{clip-path:url(#SVGID_2_);fill:#F5F8FC;}
	.st22{clip-path:url(#SVGID_2_);fill:#F4F8FC;}
	.st23{clip-path:url(#SVGID_2_);fill:#F3F7FB;}
	.st24{clip-path:url(#SVGID_2_);fill:#F2F7FB;}
	.st25{clip-path:url(#SVGID_2_);fill:#F2F6FB;}
	.st26{clip-path:url(#SVGID_2_);fill:#F1F6FB;}
	.st27{clip-path:url(#SVGID_2_);fill:#F0F5FB;}
	.st28{clip-path:url(#SVGID_2_);fill:#F0F5FA;}
	.st29{clip-path:url(#SVGID_2_);fill:#EFF5FA;}
	.st30{clip-path:url(#SVGID_2_);fill:#EEF4FA;}
	.st31{clip-path:url(#SVGID_2_);fill:#EDF3F9;}
	.st32{clip-path:url(#SVGID_2_);fill:#ECF3F9;}
	.st33{clip-path:url(#SVGID_2_);fill:#ECF2F9;}
	.st34{clip-path:url(#SVGID_2_);fill:#EBF2F9;}
	.st35{clip-path:url(#SVGID_2_);fill:#EAF1F9;}
	.st36{clip-path:url(#SVGID_2_);fill:#E9F1F8;}
	.st37{clip-path:url(#SVGID_2_);fill:#E9F0F8;}
	.st38{clip-path:url(#SVGID_2_);fill:#E8F0F8;}
	.st39{clip-path:url(#SVGID_2_);fill:#E7EFF8;}
	.st40{clip-path:url(#SVGID_2_);fill:#E6EFF7;}
	.st41{clip-path:url(#SVGID_2_);fill:#E5EEF7;}
	.st42{clip-path:url(#SVGID_2_);fill:#E4EDF7;}
	.st43{clip-path:url(#SVGID_2_);fill:#E3EDF6;}
	.st44{clip-path:url(#SVGID_2_);fill:#E2ECF6;}
	.st45{clip-path:url(#SVGID_2_);fill:#E1EBF6;}
	.st46{clip-path:url(#SVGID_2_);fill:#E0EBF6;}
	.st47{clip-path:url(#SVGID_2_);fill:#DFEAF5;}
	.st48{clip-path:url(#SVGID_2_);fill:#DEEAF5;}
	.st49{clip-path:url(#SVGID_2_);fill:#DDE9F5;}
	.st50{clip-path:url(#SVGID_2_);fill:#DCE8F4;}
	.st51{clip-path:url(#SVGID_2_);fill:#DBE8F4;}
	.st52{clip-path:url(#SVGID_2_);fill:#DAE7F4;}
	.st53{clip-path:url(#SVGID_2_);fill:#D9E6F3;}
	.st54{clip-path:url(#SVGID_2_);fill:#D8E6F3;}
	.st55{clip-path:url(#SVGID_2_);fill:#D7E5F3;}
	.st56{clip-path:url(#SVGID_2_);fill:#D6E4F2;}
	.st57{clip-path:url(#SVGID_2_);fill:#D5E4F2;}
	.st58{clip-path:url(#SVGID_2_);fill:#D4E3F2;}
	.st59{clip-path:url(#SVGID_2_);fill:#D3E2F1;}
	.st60{clip-path:url(#SVGID_2_);fill:#D2E1F1;}
	.st61{clip-path:url(#SVGID_2_);fill:#D0E1F1;}
	.st62{clip-path:url(#SVGID_2_);fill:#CFE0F0;}
	.st63{clip-path:url(#SVGID_2_);fill:#CEDFF0;}
	.st64{clip-path:url(#SVGID_2_);fill:#CDDEF0;}
	.st65{clip-path:url(#SVGID_2_);fill:#CCDEEF;}
	.st66{clip-path:url(#SVGID_2_);fill:#CBDDEF;}
	.st67{clip-path:url(#SVGID_2_);fill:#C9DCEF;}
	.st68{clip-path:url(#SVGID_2_);fill:#C8DBEE;}
	.st69{clip-path:url(#SVGID_2_);fill:#C7DAEE;}
	.st70{clip-path:url(#SVGID_2_);fill:#C5D9ED;}
	.st71{clip-path:url(#SVGID_2_);fill:#C4D9ED;}
	.st72{clip-path:url(#SVGID_2_);fill:#C3D8ED;}
	.st73{clip-path:url(#SVGID_2_);fill:#C2D7EC;}
	.st74{clip-path:url(#SVGID_2_);fill:#C0D6EC;}
	.st75{clip-path:url(#SVGID_2_);fill:#BFD5EB;}
	.st76{clip-path:url(#SVGID_2_);fill:#BDD4EB;}
	.st77{clip-path:url(#SVGID_2_);fill:#BCD3EA;}
	.st78{clip-path:url(#SVGID_2_);fill:#BBD2EA;}
	.st79{clip-path:url(#SVGID_2_);fill:#B9D1EA;}
	.st80{clip-path:url(#SVGID_2_);fill:#B8D0E9;}
	.st81{clip-path:url(#SVGID_2_);fill:#B6D0E9;}
	.st82{clip-path:url(#SVGID_2_);fill:#B5CFE8;}
	.st83{clip-path:url(#SVGID_2_);fill:#B3CEE8;}
	.st84{clip-path:url(#SVGID_2_);fill:#B2CDE7;}
	.st85{clip-path:url(#SVGID_2_);fill:#B0CCE7;}
	.st86{clip-path:url(#SVGID_2_);fill:#AFCBE6;}
	.st87{clip-path:url(#SVGID_2_);fill:#ADCAE6;}
	.st88{clip-path:url(#SVGID_2_);fill:#ACC9E5;}
	.st89{clip-path:url(#SVGID_2_);fill:#AAC8E5;}
	.st90{clip-path:url(#SVGID_2_);fill:#A9C7E5;}
	.st91{clip-path:url(#SVGID_2_);fill:#A7C6E4;}
	.st92{clip-path:url(#SVGID_2_);fill:#A5C4E4;}
	.st93{clip-path:url(#SVGID_2_);fill:#A4C3E3;}
	.st94{clip-path:url(#SVGID_2_);fill:#A2C2E3;}
	.st95{clip-path:url(#SVGID_2_);fill:#A0C1E2;}
	.st96{clip-path:url(#SVGID_2_);fill:#9FC0E1;}
	.st97{clip-path:url(#SVGID_2_);fill:#9DBFE1;}
	.st98{clip-path:url(#SVGID_2_);fill:#9BBEE0;}
	.st99{clip-path:url(#SVGID_2_);fill:#9ABDE0;}
	.st100{clip-path:url(#SVGID_2_);fill:#98BCDF;}
	.st101{clip-path:url(#SVGID_2_);fill:#96BADF;}
	.st102{clip-path:url(#SVGID_2_);fill:#94B9DE;}
	.st103{clip-path:url(#SVGID_2_);fill:#92B8DE;}
	.st104{clip-path:url(#SVGID_2_);fill:#91B7DD;}
	.st105{clip-path:url(#SVGID_2_);fill:#8FB6DD;}
	.st106{clip-path:url(#SVGID_2_);fill:#8DB5DC;}
	.st107{clip-path:url(#SVGID_2_);fill:#8BB3DB;}
	.st108{clip-path:url(#SVGID_2_);fill:#89B2DB;}
	.st109{clip-path:url(#SVGID_2_);fill:#87B1DA;}
	.st110{clip-path:url(#SVGID_2_);fill:#85B0DA;}
	.st111{clip-path:url(#SVGID_2_);fill:#84AED9;}
	.st112{clip-path:url(#SVGID_2_);fill:#82ADD9;}
	.st113{clip-path:url(#SVGID_2_);fill:#80ACD8;}
	.st114{clip-path:url(#SVGID_2_);fill:#7EAAD7;}
	.st115{clip-path:url(#SVGID_2_);fill:#7CA9D7;}
	.st116{clip-path:url(#SVGID_2_);fill:#7AA8D6;}
	.st117{clip-path:url(#SVGID_2_);fill:#78A7D5;}
	.st118{clip-path:url(#SVGID_2_);fill:#76A5D5;}
	.st119{clip-path:url(#SVGID_2_);fill:#74A4D4;}
	.st120{clip-path:url(#SVGID_2_);fill:#71A3D4;}
	.st121{clip-path:url(#SVGID_2_);fill:#6FA1D3;}
	.st122{clip-path:url(#SVGID_2_);fill:#6DA0D2;}
	.st123{clip-path:url(#SVGID_2_);fill:#6B9ED2;}
	.st124{clip-path:url(#SVGID_2_);fill:#699DD1;}
	.st125{fill:#00617A;}
	.st126{fill:#E3E9ED;}
	.st127{fill:#303030;}
	.st128{fill:#1AE5BE;}
	.st129{fill:#CC9B92;}
	.st130{fill:#FFFFFF;}
	.st131{fill:#B78A84;}
	.st132{fill:#0B2239;}
	.st133{fill:#1BBC9D;}
	.st134{fill:#1C717F;}
	.st135{fill:#5793CE;}
	.st136{fill:#EFEFEF;}
	.st137{fill:#CCCECE;}
	.st138{fill:#12748D;}
	.st139{opacity:0.2;}
	.st140{opacity:0.15;}
</style>
<g>
	<path class="st0" d="M191.91,203.66l74.56-43.18c2.45-1.42,3.59-3.33,3.51-5.32l0.02,0.01l-0.03-10.82l-4.15,4.86
		c-0.27-0.18-0.54-0.35-0.83-0.52L112.46,60.91c-6.06-3.48-15.21-3.85-20.44-0.82L18.5,102.66c-1.49-1.63-4.61-5.07-4.61-5.07
		l0.04,10.58l0,0c-0.11,2.39,1.59,4.93,5.01,6.89l152.53,87.78C177.52,206.33,186.67,206.7,191.91,203.66z"/>
	<path class="st1" d="M112.46,60.91c-6.06-3.48-15.21-3.85-20.44-0.82L18.5,102.66c-1.49-1.63-4.61-5.07-4.61-5.07l0.04,10.58l0,0
		c-0.11,2.39,1.59,4.93,5.01,6.89l152.53,87.78c3.16,1.82,7.16,2.78,11.01,2.86l-0.15-104.59L112.46,60.91z"/>
	<path class="st1" d="M17.42,92.39l74.56-43.18c5.24-3.03,14.39-2.67,20.44,0.82l152.53,87.78c6.06,3.48,6.72,8.77,1.48,11.8
		l-74.56,43.18c-5.24,3.03-14.39,2.67-20.44-0.82L18.91,104.19C12.85,100.7,12.19,95.42,17.42,92.39z"/>
	<path class="st2" d="M191.94,193.94l74.56-43.18c2.7-1.56,3.82-3.73,3.45-5.93c-0.13,1.79-1.28,3.49-3.51,4.78l-74.56,43.18
		c-5.24,3.03-14.39,2.67-20.44-0.82L18.91,104.19c-2.93-1.69-4.59-3.8-4.93-5.87c-0.18,2.42,1.51,5.02,4.99,7.02l152.53,87.78
		C177.55,196.61,186.7,196.97,191.94,193.94z"/>
	<path class="st3" d="M23.17,94.09L94.81,52.6c3.89-2.25,10.7-1.98,15.2,0.61l150.36,86.53c4.5,2.59,4.99,6.52,1.1,8.77L189.83,190
		c-3.89,2.25-10.7,1.98-15.2-0.61L24.27,102.86C19.77,100.27,19.28,96.34,23.17,94.09z"/>
	<g style="display: none;">
		<g>
			<defs>

					<ellipse id="SVGID_1_" transform="matrix(0.8869 -0.4619 0.4619 0.8869 -53.4792 72.5508)" cx="121.46" cy="145.52" rx="54.94" ry="31.72"/>
			</defs>
			<clipPath id="SVGID_2_">
				<use xlink:href="#SVGID_1_"  style="overflow:visible;"/>
			</clipPath>
			<rect x="63.33" y="106.6" class="st4" width="116.26" height="77.83"/>

				<ellipse transform="matrix(0.8917 -0.4526 0.4526 0.8917 -52.7063 70.7248)" class="st4" cx="121.46" cy="145.52" rx="50.89" ry="27.59"/>

				<ellipse transform="matrix(0.8917 -0.4526 0.4526 0.8917 -52.7063 70.7248)" class="st4" cx="121.46" cy="145.52" rx="50.55" ry="27.41"/>

				<ellipse transform="matrix(0.8917 -0.4526 0.4526 0.8917 -52.7063 70.7246)" class="st4" cx="121.46" cy="145.52" rx="50.21" ry="27.23"/>

				<ellipse transform="matrix(0.8917 -0.4526 0.4526 0.8917 -52.7063 70.7247)" class="st4" cx="121.46" cy="145.52" rx="49.87" ry="27.04"/>

				<ellipse transform="matrix(0.8917 -0.4526 0.4526 0.8917 -52.7062 70.7246)" class="st4" cx="121.46" cy="145.52" rx="49.53" ry="26.86"/>

				<ellipse transform="matrix(0.8917 -0.4526 0.4526 0.8917 -52.7063 70.7247)" class="st4" cx="121.46" cy="145.52" rx="49.19" ry="26.67"/>

				<ellipse transform="matrix(0.8917 -0.4526 0.4526 0.8917 -52.7063 70.7246)" class="st4" cx="121.46" cy="145.52" rx="48.86" ry="26.49"/>

				<ellipse transform="matrix(0.8917 -0.4526 0.4526 0.8917 -52.7063 70.7247)" class="st4" cx="121.46" cy="145.52" rx="48.52" ry="26.31"/>

				<ellipse transform="matrix(0.8917 -0.4526 0.4526 0.8917 -52.7062 70.7245)" class="st4" cx="121.46" cy="145.52" rx="48.18" ry="26.12"/>

				<ellipse transform="matrix(0.8917 -0.4526 0.4526 0.8917 -52.7063 70.7247)" class="st4" cx="121.46" cy="145.52" rx="47.84" ry="25.94"/>

				<ellipse transform="matrix(0.8917 -0.4526 0.4526 0.8917 -52.7062 70.7245)" class="st4" cx="121.46" cy="145.52" rx="47.5" ry="25.75"/>

				<ellipse transform="matrix(0.8917 -0.4526 0.4526 0.8917 -52.7063 70.7247)" class="st5" cx="121.46" cy="145.52" rx="47.16" ry="25.57"/>

				<ellipse transform="matrix(0.8917 -0.4526 0.4526 0.8917 -52.7064 70.7248)" class="st5" cx="121.46" cy="145.52" rx="46.82" ry="25.39"/>

				<ellipse transform="matrix(0.8917 -0.4526 0.4526 0.8917 -52.7063 70.7247)" class="st6" cx="121.46" cy="145.52" rx="46.48" ry="25.2"/>

				<ellipse transform="matrix(0.8917 -0.4526 0.4526 0.8917 -52.7064 70.7248)" class="st6" cx="121.46" cy="145.52" rx="46.14" ry="25.02"/>

				<ellipse transform="matrix(0.8917 -0.4526 0.4526 0.8917 -52.7063 70.7248)" class="st6" cx="121.46" cy="145.52" rx="45.8" ry="24.83"/>

				<ellipse transform="matrix(0.8917 -0.4526 0.4526 0.8917 -52.7063 70.7246)" class="st6" cx="121.46" cy="145.52" rx="45.46" ry="24.65"/>

				<ellipse transform="matrix(0.8917 -0.4526 0.4526 0.8917 -52.7063 70.7246)" class="st6" cx="121.46" cy="145.52" rx="45.12" ry="24.47"/>

				<ellipse transform="matrix(0.8917 -0.4526 0.4526 0.8917 -52.7062 70.7244)" class="st7" cx="121.46" cy="145.52" rx="44.78" ry="24.28"/>

				<ellipse transform="matrix(0.8917 -0.4526 0.4526 0.8917 -52.7063 70.7247)" class="st7" cx="121.46" cy="145.52" rx="44.44" ry="24.1"/>

				<ellipse transform="matrix(0.8917 -0.4526 0.4526 0.8917 -52.7063 70.7246)" class="st7" cx="121.46" cy="145.52" rx="44.11" ry="23.91"/>

				<ellipse transform="matrix(0.8917 -0.4526 0.4526 0.8917 -52.7062 70.7245)" class="st8" cx="121.46" cy="145.52" rx="43.77" ry="23.73"/>

				<ellipse transform="matrix(0.8917 -0.4526 0.4526 0.8917 -52.7063 70.7246)" class="st9" cx="121.46" cy="145.52" rx="43.43" ry="23.55"/>

				<ellipse transform="matrix(0.8917 -0.4526 0.4526 0.8917 -52.7062 70.7244)" class="st9" cx="121.46" cy="145.52" rx="43.09" ry="23.36"/>

				<ellipse transform="matrix(0.8917 -0.4526 0.4526 0.8917 -52.7064 70.7248)" class="st9" cx="121.46" cy="145.52" rx="42.75" ry="23.18"/>

				<ellipse transform="matrix(0.8917 -0.4526 0.4526 0.8917 -52.7064 70.7249)" class="st9" cx="121.46" cy="145.52" rx="42.41" ry="23"/>

				<ellipse transform="matrix(0.8917 -0.4526 0.4526 0.8917 -52.7063 70.7247)" class="st10" cx="121.46" cy="145.52" rx="42.07" ry="22.81"/>

				<ellipse transform="matrix(0.8917 -0.4526 0.4526 0.8917 -52.7064 70.7249)" class="st11" cx="121.46" cy="145.52" rx="41.73" ry="22.63"/>

				<ellipse transform="matrix(0.8917 -0.4526 0.4526 0.8917 -52.7063 70.7246)" class="st11" cx="121.46" cy="145.52" rx="41.39" ry="22.44"/>

				<ellipse transform="matrix(0.8917 -0.4526 0.4526 0.8917 -52.7064 70.7249)" class="st12" cx="121.46" cy="145.52" rx="41.05" ry="22.26"/>

				<ellipse transform="matrix(0.8917 -0.4526 0.4526 0.8917 -52.7064 70.725)" class="st13" cx="121.46" cy="145.52" rx="40.71" ry="22.08"/>

				<ellipse transform="matrix(0.8917 -0.4526 0.4526 0.8917 -52.7063 70.7246)" class="st13" cx="121.46" cy="145.52" rx="40.37" ry="21.89"/>

				<ellipse transform="matrix(0.8917 -0.4526 0.4526 0.8917 -52.7064 70.7248)" class="st14" cx="121.46" cy="145.52" rx="40.03" ry="21.71"/>

				<ellipse transform="matrix(0.8917 -0.4526 0.4526 0.8917 -52.7063 70.7248)" class="st14" cx="121.46" cy="145.52" rx="39.69" ry="21.52"/>

				<ellipse transform="matrix(0.8917 -0.4526 0.4526 0.8917 -52.7063 70.7248)" class="st14" cx="121.46" cy="145.52" rx="39.36" ry="21.34"/>

				<ellipse transform="matrix(0.8917 -0.4526 0.4526 0.8917 -52.7064 70.7248)" class="st15" cx="121.46" cy="145.52" rx="39.02" ry="21.16"/>

				<ellipse transform="matrix(0.8917 -0.4526 0.4526 0.8917 -52.7063 70.7247)" class="st16" cx="121.46" cy="145.52" rx="38.68" ry="20.97"/>

				<ellipse transform="matrix(0.8917 -0.4526 0.4526 0.8917 -52.7064 70.725)" class="st17" cx="121.46" cy="145.52" rx="38.34" ry="20.79"/>

				<ellipse transform="matrix(0.8917 -0.4526 0.4526 0.8917 -52.7064 70.725)" class="st18" cx="121.46" cy="145.52" rx="38" ry="20.6"/>

				<ellipse transform="matrix(0.8917 -0.4526 0.4526 0.8917 -52.7065 70.7251)" class="st19" cx="121.46" cy="145.52" rx="37.66" ry="20.42"/>

				<ellipse transform="matrix(0.8917 -0.4526 0.4526 0.8917 -52.7064 70.7249)" class="st19" cx="121.46" cy="145.52" rx="37.32" ry="20.24"/>

				<ellipse transform="matrix(0.8917 -0.4526 0.4526 0.8917 -52.7063 70.7247)" class="st20" cx="121.46" cy="145.52" rx="36.98" ry="20.05"/>

				<ellipse transform="matrix(0.8917 -0.4526 0.4526 0.8917 -52.7064 70.7248)" class="st21" cx="121.46" cy="145.52" rx="36.64" ry="19.87"/>

				<ellipse transform="matrix(0.8917 -0.4526 0.4526 0.8917 -52.7065 70.725)" class="st22" cx="121.46" cy="145.52" rx="36.3" ry="19.68"/>

				<ellipse transform="matrix(0.8917 -0.4526 0.4526 0.8917 -52.7064 70.7248)" class="st22" cx="121.46" cy="145.52" rx="35.96" ry="19.5"/>

				<ellipse transform="matrix(0.8917 -0.4526 0.4526 0.8917 -52.7064 70.725)" class="st23" cx="121.46" cy="145.52" rx="35.62" ry="19.32"/>

				<ellipse transform="matrix(0.8917 -0.4526 0.4526 0.8917 -52.7063 70.7246)" class="st23" cx="121.46" cy="145.52" rx="35.28" ry="19.13"/>

				<ellipse transform="matrix(0.8917 -0.4526 0.4526 0.8917 -52.7063 70.7247)" class="st24" cx="121.46" cy="145.52" rx="34.94" ry="18.95"/>

				<ellipse transform="matrix(0.8917 -0.4526 0.4526 0.8917 -52.7063 70.7247)" class="st25" cx="121.46" cy="145.52" rx="34.61" ry="18.76"/>

				<ellipse transform="matrix(0.8917 -0.4526 0.4526 0.8917 -52.7064 70.7248)" class="st26" cx="121.46" cy="145.52" rx="34.27" ry="18.58"/>

				<ellipse transform="matrix(0.8917 -0.4526 0.4526 0.8917 -52.7064 70.725)" class="st27" cx="121.46" cy="145.52" rx="33.93" ry="18.4"/>

				<ellipse transform="matrix(0.8917 -0.4526 0.4526 0.8917 -52.7063 70.7247)" class="st28" cx="121.46" cy="145.52" rx="33.59" ry="18.21"/>

				<ellipse transform="matrix(0.8917 -0.4526 0.4526 0.8917 -52.7064 70.7249)" class="st29" cx="121.46" cy="145.52" rx="33.25" ry="18.03"/>

				<ellipse transform="matrix(0.8917 -0.4526 0.4526 0.8917 -52.7065 70.7251)" class="st30" cx="121.46" cy="145.52" rx="32.91" ry="17.84"/>

				<ellipse transform="matrix(0.8917 -0.4526 0.4526 0.8917 -52.7064 70.7248)" class="st30" cx="121.46" cy="145.52" rx="32.57" ry="17.66"/>

				<ellipse transform="matrix(0.8917 -0.4526 0.4526 0.8917 -52.7064 70.7249)" class="st31" cx="121.46" cy="145.52" rx="32.23" ry="17.48"/>

				<ellipse transform="matrix(0.8917 -0.4526 0.4526 0.8917 -52.7064 70.725)" class="st32" cx="121.46" cy="145.52" rx="31.89" ry="17.29"/>

				<ellipse transform="matrix(0.8917 -0.4526 0.4526 0.8917 -52.7062 70.7246)" class="st33" cx="121.46" cy="145.52" rx="31.55" ry="17.11"/>

				<ellipse transform="matrix(0.8917 -0.4526 0.4526 0.8917 -52.7064 70.7248)" class="st34" cx="121.46" cy="145.52" rx="31.21" ry="16.92"/>

				<ellipse transform="matrix(0.8917 -0.4526 0.4526 0.8917 -52.7064 70.7249)" class="st35" cx="121.46" cy="145.52" rx="30.87" ry="16.74"/>

				<ellipse transform="matrix(0.8917 -0.4526 0.4526 0.8917 -52.7063 70.7247)" class="st36" cx="121.46" cy="145.52" rx="30.53" ry="16.56"/>

				<ellipse transform="matrix(0.8917 -0.4526 0.4526 0.8917 -52.7063 70.7247)" class="st37" cx="121.46" cy="145.52" rx="30.2" ry="16.37"/>

				<ellipse transform="matrix(0.8917 -0.4526 0.4526 0.8917 -52.7063 70.7246)" class="st38" cx="121.46" cy="145.52" rx="29.86" ry="16.19"/>

				<ellipse transform="matrix(0.8917 -0.4526 0.4526 0.8917 -52.7065 70.7252)" class="st39" cx="121.46" cy="145.52" rx="29.52" ry="16"/>

				<ellipse transform="matrix(0.8917 -0.4526 0.4526 0.8917 -52.7063 70.7247)" class="st40" cx="121.46" cy="145.52" rx="29.18" ry="15.82"/>

				<ellipse transform="matrix(0.8917 -0.4526 0.4526 0.8917 -52.7064 70.725)" class="st41" cx="121.46" cy="145.52" rx="28.84" ry="15.64"/>

				<ellipse transform="matrix(0.8917 -0.4526 0.4526 0.8917 -52.7064 70.725)" class="st41" cx="121.46" cy="145.52" rx="28.5" ry="15.45"/>

				<ellipse transform="matrix(0.8917 -0.4526 0.4526 0.8917 -52.7063 70.7247)" class="st42" cx="121.46" cy="145.52" rx="28.16" ry="15.27"/>

				<ellipse transform="matrix(0.8917 -0.4526 0.4526 0.8917 -52.7063 70.7247)" class="st43" cx="121.46" cy="145.52" rx="27.82" ry="15.08"/>

				<ellipse transform="matrix(0.8917 -0.4526 0.4526 0.8917 -52.7062 70.7244)" class="st44" cx="121.46" cy="145.52" rx="27.48" ry="14.9"/>

				<ellipse transform="matrix(0.8917 -0.4526 0.4526 0.8917 -52.7062 70.7244)" class="st45" cx="121.46" cy="145.52" rx="27.14" ry="14.72"/>

				<ellipse transform="matrix(0.8917 -0.4526 0.4526 0.8917 -52.7062 70.7245)" class="st46" cx="121.46" cy="145.52" rx="26.8" ry="14.53"/>

				<ellipse transform="matrix(0.8917 -0.4526 0.4526 0.8917 -52.7063 70.7247)" class="st47" cx="121.46" cy="145.52" rx="26.46" ry="14.35"/>

				<ellipse transform="matrix(0.8917 -0.4526 0.4526 0.8917 -52.7064 70.7248)" class="st48" cx="121.46" cy="145.52" rx="26.12" ry="14.17"/>

				<ellipse transform="matrix(0.8917 -0.4526 0.4526 0.8917 -52.7063 70.7246)" class="st49" cx="121.46" cy="145.52" rx="25.78" ry="13.98"/>

				<ellipse transform="matrix(0.8917 -0.4526 0.4526 0.8917 -52.7062 70.7243)" class="st50" cx="121.46" cy="145.52" rx="25.45" ry="13.8"/>

				<ellipse transform="matrix(0.8917 -0.4526 0.4526 0.8917 -52.7064 70.725)" class="st51" cx="121.46" cy="145.52" rx="25.11" ry="13.61"/>

				<ellipse transform="matrix(0.8917 -0.4526 0.4526 0.8917 -52.7064 70.7248)" class="st52" cx="121.46" cy="145.52" rx="24.77" ry="13.43"/>

				<ellipse transform="matrix(0.8917 -0.4526 0.4526 0.8917 -52.7064 70.7248)" class="st53" cx="121.46" cy="145.52" rx="24.43" ry="13.25"/>

				<ellipse transform="matrix(0.8917 -0.4526 0.4526 0.8917 -52.7064 70.725)" class="st54" cx="121.46" cy="145.52" rx="24.09" ry="13.06"/>

				<ellipse transform="matrix(0.8917 -0.4526 0.4526 0.8917 -52.7063 70.7246)" class="st55" cx="121.46" cy="145.52" rx="23.75" ry="12.88"/>

				<ellipse transform="matrix(0.8917 -0.4526 0.4526 0.8917 -52.7062 70.7244)" class="st56" cx="121.46" cy="145.52" rx="23.41" ry="12.69"/>

				<ellipse transform="matrix(0.8917 -0.4526 0.4526 0.8917 -52.7063 70.7246)" class="st57" cx="121.46" cy="145.52" rx="23.07" ry="12.51"/>

				<ellipse transform="matrix(0.8917 -0.4526 0.4526 0.8917 -52.7063 70.7246)" class="st58" cx="121.46" cy="145.52" rx="22.73" ry="12.33"/>

				<ellipse transform="matrix(0.8917 -0.4526 0.4526 0.8917 -52.7063 70.7246)" class="st59" cx="121.46" cy="145.52" rx="22.39" ry="12.14"/>

				<ellipse transform="matrix(0.8917 -0.4526 0.4526 0.8917 -52.7062 70.7245)" class="st60" cx="121.46" cy="145.52" rx="22.05" ry="11.96"/>

				<ellipse transform="matrix(0.8917 -0.4526 0.4526 0.8917 -52.7062 70.7245)" class="st61" cx="121.46" cy="145.52" rx="21.71" ry="11.77"/>

				<ellipse transform="matrix(0.8917 -0.4526 0.4526 0.8917 -52.7063 70.7246)" class="st62" cx="121.46" cy="145.52" rx="21.37" ry="11.59"/>

				<ellipse transform="matrix(0.8917 -0.4526 0.4526 0.8917 -52.7063 70.7247)" class="st63" cx="121.46" cy="145.52" rx="21.03" ry="11.41"/>

				<ellipse transform="matrix(0.8917 -0.4526 0.4526 0.8917 -52.7065 70.7251)" class="st64" cx="121.46" cy="145.52" rx="20.7" ry="11.22"/>

				<ellipse transform="matrix(0.8917 -0.4526 0.4526 0.8917 -52.7062 70.7245)" class="st65" cx="121.46" cy="145.52" rx="20.36" ry="11.04"/>

				<ellipse transform="matrix(0.8917 -0.4526 0.4526 0.8917 -52.7063 70.7247)" class="st66" cx="121.46" cy="145.52" rx="20.02" ry="10.85"/>
			<path class="st67" d="M139.01,136.61c2.67,5.25-3.03,13.5-12.72,18.42c-9.69,4.92-19.71,4.65-22.38-0.61
				c-2.67-5.25,3.03-13.5,12.72-18.42C126.33,131.09,136.34,131.36,139.01,136.61z"/>

				<ellipse transform="matrix(0.8917 -0.4526 0.4526 0.8917 -52.7062 70.7244)" class="st68" cx="121.46" cy="145.52" rx="19.34" ry="10.49"/>

				<ellipse transform="matrix(0.8917 -0.4526 0.4526 0.8917 -52.7062 70.7244)" class="st69" cx="121.46" cy="145.52" rx="19" ry="10.3"/>
			<path class="st70" d="M138.1,137.07c2.53,4.98-2.87,12.8-12.06,17.47c-9.19,4.66-18.69,4.41-21.22-0.58
				c-2.53-4.98,2.87-12.8,12.06-17.47C126.07,131.83,135.57,132.09,138.1,137.07z"/>

				<ellipse transform="matrix(0.8917 -0.4526 0.4526 0.8917 -52.7062 70.7244)" class="st71" cx="121.46" cy="145.52" rx="18.32" ry="9.93"/>

				<ellipse transform="matrix(0.8917 -0.4526 0.4526 0.8917 -52.7064 70.7249)" class="st72" cx="121.46" cy="145.52" rx="17.98" ry="9.75"/>

				<ellipse transform="matrix(0.8917 -0.4526 0.4526 0.8917 -52.7061 70.7242)" class="st73" cx="121.46" cy="145.52" rx="17.64" ry="9.57"/>

				<ellipse transform="matrix(0.8917 -0.4526 0.4526 0.8917 -52.7062 70.7244)" class="st74" cx="121.46" cy="145.52" rx="17.3" ry="9.38"/>
			<path class="st75" d="M136.59,137.84c2.3,4.53-2.61,11.64-10.96,15.88s-16.99,4-19.29-0.53c-2.3-4.53,2.61-11.64,10.96-15.88
				C125.65,133.08,134.29,133.31,136.59,137.84z"/>

				<ellipse transform="matrix(0.8917 -0.4526 0.4526 0.8917 -52.7064 70.725)" class="st76" cx="121.46" cy="145.52" rx="16.62" ry="9.01"/>

				<ellipse transform="matrix(0.8917 -0.4526 0.4526 0.8917 -52.7067 70.7255)" class="st77" cx="121.46" cy="145.52" rx="16.29" ry="8.83"/>
			<path class="st78" d="M135.68,138.3c2.16,4.26-2.45,10.94-10.31,14.93c-7.85,3.99-15.97,3.76-18.13-0.49
				c-2.16-4.26,2.45-10.94,10.31-14.93C125.4,133.82,133.52,134.04,135.68,138.3z"/>

				<ellipse transform="matrix(0.8917 -0.4526 0.4526 0.8917 -52.7062 70.7244)" class="st79" cx="121.46" cy="145.52" rx="15.61" ry="8.46"/>

				<ellipse transform="matrix(0.8917 -0.4526 0.4526 0.8917 -52.7064 70.7249)" class="st80" cx="121.46" cy="145.52" rx="15.27" ry="8.28"/>

				<ellipse transform="matrix(0.8917 -0.4526 0.4526 0.8917 -52.7063 70.7247)" class="st81" cx="121.46" cy="145.52" rx="14.93" ry="8.09"/>
			<path class="st82" d="M134.47,138.92c1.98,3.9-2.24,10.01-9.43,13.66c-7.18,3.65-14.61,3.44-16.59-0.45s2.24-10.01,9.43-13.66
				C125.07,134.82,132.49,135.02,134.47,138.92z"/>

				<ellipse transform="matrix(0.8917 -0.4526 0.4526 0.8917 -52.7059 70.7238)" class="st83" cx="121.46" cy="145.52" rx="14.25" ry="7.73"/>

				<ellipse transform="matrix(0.8917 -0.4526 0.4526 0.8917 -52.7061 70.7243)" class="st84" cx="121.46" cy="145.52" rx="13.91" ry="7.54"/>

				<ellipse transform="matrix(0.8917 -0.4526 0.4526 0.8917 -52.7062 70.7244)" class="st85" cx="121.46" cy="145.52" rx="13.57" ry="7.36"/>
			<path class="st86" d="M133.26,139.53c1.79,3.53-2.04,9.08-8.55,12.39c-6.52,3.31-13.25,3.12-15.05-0.41
				c-1.79-3.53,2.04-9.08,8.55-12.39C124.73,135.81,131.47,136,133.26,139.53z"/>

				<ellipse transform="matrix(0.8917 -0.4526 0.4526 0.8917 -52.7064 70.7248)" class="st87" cx="121.46" cy="145.52" rx="12.89" ry="6.99"/>
			<path class="st88" d="M132.66,139.84c1.7,3.35-1.93,8.61-8.11,11.75c-6.18,3.14-12.57,2.96-14.27-0.39
				c-1.7-3.35,1.93-8.61,8.11-11.75C124.56,136.31,130.96,136.49,132.66,139.84z"/>

				<ellipse transform="matrix(0.8917 -0.4526 0.4526 0.8917 -52.7066 70.7255)" class="st89" cx="121.46" cy="145.52" rx="12.21" ry="6.62"/>
			<path class="st90" d="M132.05,140.15c1.61,3.17-1.83,8.15-7.67,11.12c-5.85,2.97-11.89,2.8-13.5-0.37
				c-1.61-3.17,1.83-8.15,7.68-11.12C124.4,136.81,130.44,136.97,132.05,140.15z"/>
			<path class="st91" d="M131.75,140.3c1.56,3.08-1.77,7.91-7.46,10.8s-11.55,2.72-13.12-0.36c-1.56-3.08,1.77-7.91,7.46-10.8
				C124.31,137.06,130.19,137.22,131.75,140.3z"/>
			<path class="st92" d="M131.45,140.45c1.52,2.99-1.72,7.68-7.24,10.48c-5.51,2.8-11.21,2.64-12.73-0.35
				c-1.52-2.99,1.72-7.68,7.24-10.48C124.23,137.31,129.93,137.46,131.45,140.45z"/>

				<ellipse transform="matrix(0.8917 -0.4526 0.4526 0.8917 -52.7062 70.7244)" class="st93" cx="121.46" cy="145.52" rx="10.86" ry="5.89"/>
			<path class="st94" d="M130.84,140.76c1.43,2.81-1.62,7.22-6.8,9.85c-5.18,2.63-10.53,2.48-11.96-0.33
				c-1.43-2.81,1.62-7.22,6.8-9.85C124.06,137.81,129.42,137.95,130.84,140.76z"/>

				<ellipse transform="matrix(0.8917 -0.4526 0.4526 0.8917 -52.7065 70.7253)" class="st95" cx="121.46" cy="145.52" rx="10.18" ry="5.52"/>
			<path class="st96" d="M130.24,141.07c1.33,2.63-1.51,6.75-6.36,9.21c-4.85,2.46-9.85,2.32-11.19-0.3
				c-1.33-2.63,1.51-6.75,6.36-9.21C123.89,138.3,128.9,138.44,130.24,141.07z"/>

				<ellipse transform="matrix(0.8917 -0.4526 0.4526 0.8917 -52.7064 70.7249)" class="st97" cx="121.46" cy="145.52" rx="9.5" ry="5.15"/>
			<path class="st98" d="M129.63,141.37c1.24,2.45-1.41,6.29-5.92,8.57c-4.51,2.29-9.18,2.16-10.42-0.28
				c-1.24-2.45,1.41-6.29,5.92-8.57C123.73,138.8,128.39,138.93,129.63,141.37z"/>
			<path class="st99" d="M129.33,141.53c1.2,2.36-1.36,6.05-5.7,8.26s-8.84,2.08-10.03-0.27c-1.2-2.36,1.36-6.05,5.7-8.26
				C123.64,139.05,128.13,139.17,129.33,141.53z"/>

				<ellipse transform="matrix(0.8917 -0.4526 0.4526 0.8917 -52.7065 70.7252)" class="st100" cx="121.46" cy="145.52" rx="8.48" ry="4.6"/>

				<ellipse transform="matrix(0.8917 -0.4526 0.4526 0.8917 -52.7064 70.725)" class="st101" cx="121.46" cy="145.52" rx="8.14" ry="4.42"/>
			<path class="st102" d="M128.42,141.99c1.06,2.08-1.2,5.35-5.04,7.3c-3.84,1.95-7.82,1.84-8.87-0.24c-1.06-2.08,1.2-5.35,5.04-7.3
				C123.39,139.8,127.36,139.9,128.42,141.99z"/>
			<path class="st103" d="M128.12,142.14c1.01,1.99-1.15,5.12-4.82,6.99c-3.68,1.87-7.48,1.76-8.49-0.23
				c-1.01-1.99,1.15-5.12,4.82-6.99C123.31,140.04,127.11,140.15,128.12,142.14z"/>

				<ellipse transform="matrix(0.8917 -0.4526 0.4526 0.8917 -52.7067 70.7256)" class="st104" cx="121.46" cy="145.52" rx="7.12" ry="3.86"/>
			<path class="st105" d="M127.51,142.45c0.92,1.81-1.04,4.66-4.39,6.35c-3.34,1.7-6.8,1.6-7.72-0.21s1.04-4.66,4.39-6.35
				C123.14,140.54,126.59,140.64,127.51,142.45z"/>
			<path class="st106" d="M127.21,142.6c0.87,1.72-0.99,4.42-4.17,6.03c-3.17,1.61-6.46,1.52-7.33-0.2
				c-0.87-1.72,0.99-4.42,4.17-6.03C123.06,140.79,126.34,140.88,127.21,142.6z"/>
			<path class="st107" d="M126.91,142.76c0.83,1.63-0.94,4.19-3.95,5.72c-3.01,1.53-6.12,1.44-6.94-0.19
				c-0.83-1.63,0.94-4.19,3.95-5.72C122.97,141.04,126.08,141.12,126.91,142.76z"/>

				<ellipse transform="matrix(0.8917 -0.4526 0.4526 0.8917 -52.7068 70.7259)" class="st108" cx="121.46" cy="145.52" rx="5.77" ry="3.13"/>
			<path class="st109" d="M126.3,143.06c0.74,1.45-0.84,3.72-3.51,5.08c-2.67,1.36-5.44,1.28-6.17-0.17
				c-0.74-1.45,0.84-3.72,3.51-5.08C122.8,141.54,125.57,141.61,126.3,143.06z"/>
			<path class="st110" d="M126,143.22c0.69,1.36-0.78,3.49-3.29,4.76c-2.51,1.27-5.1,1.2-5.79-0.16c-0.69-1.36,0.78-3.49,3.29-4.76
				C122.72,141.79,125.31,141.86,126,143.22z"/>
			<path class="st111" d="M125.7,143.37c0.64,1.27-0.73,3.26-3.07,4.45c-2.34,1.19-4.76,1.12-5.4-0.15
				c-0.64-1.27,0.73-3.26,3.07-4.45C122.64,142.04,125.05,142.1,125.7,143.37z"/>
			<path class="st112" d="M125.4,143.52c0.6,1.18-0.68,3.03-2.85,4.13c-2.17,1.1-4.42,1.04-5.02-0.14c-0.6-1.18,0.68-3.03,2.85-4.13
				C122.55,142.28,124.8,142.35,125.4,143.52z"/>
			<path class="st113" d="M125.09,143.68c0.55,1.09-0.63,2.79-2.63,3.81c-2.01,1.02-4.08,0.96-4.63-0.13
				c-0.55-1.09,0.63-2.79,2.63-3.81C122.47,142.53,124.54,142.59,125.09,143.68z"/>
			<path class="st114" d="M124.79,143.83c0.51,1-0.57,2.56-2.41,3.49c-1.84,0.93-3.74,0.88-4.24-0.12c-0.51-1,0.57-2.56,2.41-3.49
				C122.38,142.78,124.28,142.83,124.79,143.83z"/>
			<path class="st115" d="M124.49,143.98c0.46,0.91-0.52,2.33-2.19,3.18c-1.67,0.85-3.4,0.8-3.86-0.11
				c-0.46-0.91,0.52-2.33,2.19-3.18C122.3,143.03,124.03,143.08,124.49,143.98z"/>
			<path class="st116" d="M124.19,144.14c0.41,0.82-0.47,2.1-1.97,2.86c-1.5,0.76-3.06,0.72-3.47-0.09s0.47-2.1,1.97-2.86
				C122.22,143.28,123.77,143.32,124.19,144.14z"/>
			<path class="st117" d="M123.88,144.29c0.37,0.72-0.42,1.86-1.75,2.54c-1.34,0.68-2.72,0.64-3.09-0.08
				c-0.37-0.72,0.42-1.86,1.75-2.54C122.13,143.53,123.52,143.57,123.88,144.29z"/>
			<path class="st118" d="M123.58,144.44c0.32,0.63-0.37,1.63-1.54,2.22c-1.17,0.59-2.38,0.56-2.7-0.07s0.37-1.63,1.54-2.22
				C122.05,143.78,123.26,143.81,123.58,144.44z"/>
			<path class="st119" d="M123.28,144.6c0.28,0.54-0.31,1.4-1.32,1.91c-1,0.51-2.04,0.48-2.31-0.06c-0.28-0.54,0.31-1.4,1.32-1.91
				C121.97,144.03,123,144.05,123.28,144.6z"/>
			<path class="st120" d="M122.98,144.75c0.23,0.45-0.26,1.16-1.1,1.59c-0.84,0.42-1.7,0.4-1.93-0.05c-0.23-0.45,0.26-1.16,1.1-1.59
				C121.88,144.28,122.75,144.3,122.98,144.75z"/>
			<path class="st121" d="M122.67,144.91c0.18,0.36-0.21,0.93-0.88,1.27c-0.67,0.34-1.36,0.32-1.54-0.04
				c-0.18-0.36,0.21-0.93,0.88-1.27C121.8,144.52,122.49,144.54,122.67,144.91z"/>
			<path class="st122" d="M122.37,145.06c0.14,0.27-0.16,0.7-0.66,0.95c-0.5,0.25-1.02,0.24-1.16-0.03
				c-0.14-0.27,0.16-0.7,0.66-0.95C121.71,144.77,122.23,144.79,122.37,145.06z"/>
			<path class="st123" d="M122.07,145.21c0.09,0.18-0.1,0.47-0.44,0.64s-0.68,0.16-0.77-0.02c-0.09-0.18,0.1-0.47,0.44-0.64
				C121.63,145.02,121.98,145.03,122.07,145.21z"/>
			<path class="st124" d="M121.77,145.37c0.05,0.09-0.05,0.23-0.22,0.32c-0.17,0.08-0.34,0.08-0.39-0.01
				c-0.05-0.09,0.05-0.23,0.22-0.32C121.55,145.27,121.72,145.28,121.77,145.37z"/>
		</g>
	</g>
	<path class="st125" d="M105.11,196.47c0,0-4.34-2.19-7.01,1.07c-2.67,3.26-6.48,10.96-6.6,16.17c-0.12,5.2,4.12,4.85,6.64,3.62
		c2.52-1.23,9.87-11.9,10.32-13.99c0.45-2.09-0.53-4.92-1.23-5.47C106.51,197.31,105.11,196.47,105.11,196.47z"/>
	<path class="st126" d="M106.06,195.42l0.2,4.5c0.04,0.96-0.44,1.87-1.27,2.34c-0.76,0.43-1.86,0.76-3.35,0.52
		c-3.27-0.53-3.56-1.46-3.8-5.96C97.61,192.32,106.06,195.42,106.06,195.42z"/>
	<path class="st125" d="M89.21,187.81c0,0-4.34-2.19-7.01,1.07c-2.67,3.26-6.48,10.96-6.6,16.17c-0.12,5.2,4.12,4.85,6.64,3.62
		c2.52-1.23,9.87-11.9,10.32-13.99c0.45-2.09-0.53-4.92-1.23-5.47C90.61,188.65,89.21,187.81,89.21,187.81z"/>
	<path class="st126" d="M90.16,186.77l0.2,4.5c0.04,0.96-0.44,1.87-1.27,2.34c-0.76,0.43-1.86,0.76-3.35,0.52
		c-3.27-0.53-3.56-1.46-3.8-5.96C81.71,183.67,90.16,186.77,90.16,186.77z"/>
	<path class="st127" d="M128.92,104.14c-1.29-20.92-22.65,3.08-22.65,3.08l-14.63,14.34l-13.17,14.47
		c-2.57,2.83-3.77,6.64-3.27,10.43l5.33,40.57c0.26,2,1.98,3.48,4,3.47c0.57,0,1.22-0.06,1.97-0.17c4.75-0.74,4.4-5.26,4.4-5.26
		l-0.97-37.94l27.66-16.67C117.58,130.44,130.21,125.06,128.92,104.14z"/>
	<path class="st127" d="M144.82,112.11c-1.29-20.92-22.65,3.08-22.65,3.08l-14.63,14.34l-13.17,14.47
		c-2.57,2.83-3.77,6.64-3.27,10.43l5.33,40.57c0.26,2,1.98,3.48,4,3.46c0.57,0,1.22-0.06,1.97-0.17c4.75-0.74,4.4-5.26,4.4-5.26
		l-0.95-36.85l27.63-17.76C133.48,138.41,146.11,133.03,144.82,112.11z"/>
	<path class="st128" d="M132.18,44.96c16.2,6.72,15.88,16.29,15.88,16.29s-3.17,35.11-2.09,58.56c0.45,9.8-52.08,10.55-44.24-15.6
		c9.24-30.83,5.77-55.79,10.1-59.56C116.14,40.89,127.99,43.22,132.18,44.96z"/>
	<path class="st129" d="M137.39,53.45c-0.85,3.29-5.16,5.02-9.63,3.87c-4.47-1.15-7.4-4.75-6.56-8.04c0.85-3.29,5.16-5.02,9.63-3.87
		C135.3,46.56,138.24,50.16,137.39,53.45z"/>
	<path class="st130" d="M130.5,58.45c-0.95,0-1.94-0.12-2.93-0.38c-2.32-0.6-4.34-1.83-5.68-3.48c-1.4-1.71-1.91-3.67-1.43-5.5
		c0.95-3.7,5.69-5.69,10.57-4.43c4.87,1.26,8.07,5.29,7.11,8.98v0C137.38,56.59,134.22,58.45,130.5,58.45z M128.06,45.83
		c-3.01,0-5.52,1.4-6.1,3.65c-0.35,1.35,0.06,2.82,1.14,4.14c1.13,1.39,2.86,2.44,4.87,2.96c4.05,1.04,7.94-0.44,8.68-3.31
		c0.74-2.87-1.95-6.05-6-7.1C129.76,45.94,128.89,45.83,128.06,45.83z"/>
	<path class="st129" d="M125.68,44.23c0,0,0.14,0.65-0.14,5.78c-0.09,1.61,5.56,3.12,7.02,1.66c1.46-1.46,0.88-2.98,1.23-8.47
		C134.14,37.71,125.68,44.23,125.68,44.23z"/>
	<path class="st131" d="M133.79,43.2c0,0-1.39,5.09-8.25,7.05l0.1-4.63L133.79,43.2z"/>
	<circle class="st129" cx="126.07" cy="33.38" r="12.47"/>
	<path class="st131" d="M128.93,33.84c0,0-6.87,2.94-11.62,2.97c-4.75,0.03-3.71-3.95-3.71-3.95l14.11-2.04L128.93,33.84z"/>
	<path class="st132" d="M115.89,34.62c0,0,5.98-2.54,11.23-1.48c1.23,0.25,2.38,0.91,3.17,1.88c0.26,0.32,0.59,0.61,0.96,0.69
		c0.93,0.21,2.45-3.65,4.26-3.74c1.81-0.09,3.02,1.19,1.53,3.57c-1.48,2.37-0.98,5.03-0.3,5.41c0.68,0.38,9.13-5.51,2.74-18.16
		c-6.38-12.65-23.81-5.48-26.33-2.92c0,0-2.66,2.31-4.82,0.25C108.34,20.13,105.92,38.27,115.89,34.62z"/>
	<path class="st129" d="M138.97,86.91v9.49c0,1.09-0.46,2.12-1.26,2.86l-19.49,17.77l2.21,3.39l26.85-17.61
		c1.2-0.87,1.98-2.21,2.13-3.69l1.84-17.61L138.97,86.91z"/>
	<path class="st128" d="M146.68,56.51c0,0,5.91,8.89,8.11,32.3c0,0-10.1,3.27-15.83,1.41C133.23,88.37,146.68,56.51,146.68,56.51z"
		/>
	<path class="st133" d="M137.89,67.75c0,0-2.31,12.39-2.45,18.21c-0.04,1.6,0.94,3.04,2.45,3.59l0,0V67.75z"/>
	<path class="st134" d="M132.83,129.35l-4.31-0.57l-27.8-16.05c-0.89-0.51-2.45-0.45-3.48,0.14l-19.7,11.37l-2.6-0.34v2.59l0,0
		c-0.02,0.34,0.18,0.67,0.6,0.91l31.51,18.19c0.89,0.51,2.45,0.45,3.48-0.14l21.46-12.38c0.58-0.33,0.87-0.77,0.85-1.17l0,0V129.35z
		"/>
	<path class="st1" d="M111.94,119.21l-1.98-1.14H88.24l-10.71,6.18l-2.6-0.34v2.59l0,0c-0.02,0.34,0.18,0.67,0.6,0.91l31.51,18.19
		c0.47,0.27,1.13,0.38,1.79,0.34L111.94,119.21z"/>
	<path class="st135" d="M76.09,124.05l-1.16-0.15v2.59l0,0c-0.02,0.34,0.18,0.67,0.6,0.91l0.56,0.32V124.05z"/>
	<path class="st0" d="M107.36,145.75c0.84,0.32,2.05,0.25,2.95-0.18v-4.41h-2.95V145.75z"/>
	<path class="st136" d="M107.05,143.01l-31.51-18.19c-0.89-0.51-0.78-1.41,0.25-2.01l21.46-12.38c1.03-0.59,2.59-0.66,3.48-0.14
		l31.51,18.19c0.89,0.51,0.78,1.41-0.25,2.01l-21.46,12.38C109.49,143.46,107.94,143.52,107.05,143.01z"/>
	<path class="st137" d="M106.51,140.25l-26.2-15.13c-0.74-0.43-0.65-1.18,0.21-1.67l11.5-6.47c0.86-0.49,2.15-0.55,2.89-0.12
		l26.2,15.13c0.74,0.43,0.65,1.18-0.21,1.67l-11.5,6.47C108.55,140.63,107.25,140.68,106.51,140.25z"/>
	<path class="st129" d="M98.46,109.83L98.13,112c-0.28,1.85-0.23,3.74,0.14,5.57l0.39,1.92c0.22,1.08,1.07,1.92,2.16,2.12l0,0
		c0.85,0.15,1.65-0.44,1.74-1.3l0.52-4.65c0,0,1.19,1.56,1.76,1.56c0.57,0-0.64-4.65-1.94-7.29S98.46,109.83,98.46,109.83z"/>
	<path class="st129" d="M109.14,75.27l-3.38,6.69c-0.8,1.58-1.27,3.31-1.38,5.08l-1.47,22.89l-4.45-0.11l-2.02-25.71
		c-0.06-0.79-0.02-1.59,0.11-2.38l2.31-13.04L109.14,75.27z"/>
	<path class="st0" d="M105.98,144.76l-2.64-3.45l-27.79-16.09c-0.89-0.52-1.61-1.9-1.61-3.09l0.02-22.75l-1.6-2.09l1.5-0.87l0,0
		c0.29-0.19,0.67-0.18,1.09,0.06l31.49,18.23c0.89,0.52,1.61,1.9,1.61,3.09l-0.03,24.77c0,0.67-0.23,1.13-0.59,1.32l0,0
		L105.98,144.76z"/>
	<path class="st134" d="M86.76,131.71l-1.97-1.14l-10.84-18.82l0.01-12.36l-1.6-2.09l1.5-0.87l0,0c0.29-0.19,0.67-0.18,1.09,0.06
		l31.49,18.23c0.47,0.27,0.89,0.79,1.19,1.39L86.76,131.71z"/>
	<path class="st0" d="M73.08,98.23l-0.71-0.93l1.5-0.87l0,0c0.29-0.19,0.67-0.18,1.09,0.06l0.55,0.32L73.08,98.23z"/>
	<path class="st1" d="M106.73,114.93c0.7,0.57,1.24,1.65,1.32,2.65l-3.08,1.78l-1.47-2.56L106.73,114.93z"/>
	<path class="st138" d="M104.95,115.6L73.46,97.36c-0.89-0.52-1.61,0.03-1.62,1.22l-0.03,24.77c0,1.19,0.72,2.57,1.61,3.09
		l31.49,18.23c0.89,0.52,1.61-0.03,1.62-1.22l0.03-24.77C106.56,117.49,105.84,116.11,104.95,115.6z"/>
	<path class="st129" d="M120.43,120.4l-0.5,1.05c-0.58,1.2-1.49,2.22-2.63,2.92l-3.13,1.93c-0.97,0.6-2.21,0.65-3.19,0.07
		c-0.04-0.02-0.07-0.04-0.11-0.06c-0.99-0.62-1.08-2.05-0.27-2.89l3.27-3.36c0,0-1.84,1.41-2.35,0.84
		c-0.38-0.42,1.78-2.44,3.44-2.51c1.66-0.07,3.26-1.37,3.26-1.37L120.43,120.4z"/>
	<path class="st128" d="M112.14,44.6c0,0-11.98,13.04-16.82,25c0,0,4.1,7.38,14.13,10.28C119.48,82.78,112.14,44.6,112.14,44.6z"/>
	<path class="st133" d="M107.2,79.11l1.94-18.76l-4.58,17.58C105.38,78.35,106.26,78.74,107.2,79.11z"/>
	<path class="st130" d="M121.12,41.97l-3.22-0.88c0,0,1.54,2.42,3.78,3.03c2.24,0.62,2.59-1.28,2.59-1.28L121.12,41.97z"/>
	<path class="st2" d="M232.69,177.08l-5.23,3.02c-0.69,0.4-1.26-0.02-1.26-0.95l0,0c0-0.93,0.56-2,1.26-2.4l5.23-3.02
		c0.69-0.4,1.26,0.02,1.26,0.95v0C233.95,175.6,233.39,176.68,232.69,177.08z"/>
	<g>
		<path class="st132" d="M229.25,93.9l-39.99-23.09c-0.79-0.46-1.51-0.47-2.07-0.17c0,0,0-0.03,0-0.03l-3.88,2.24
			c0,0,1.72,0.63,2.73,1v29.12c0,2.37,1.44,5.12,3.22,6.15l38.22,22.07v3.42l3.92-2.26l-0.02-0.01c0.66-0.4,1.09-1.29,1.09-2.56
			v-29.73C232.47,97.68,231.03,94.93,229.25,93.9z"/>
		<path class="st132" d="M225.3,134.49l-39.99-23.09c-1.78-1.03-3.22-3.78-3.22-6.15V75.53c0-2.37,1.44-3.46,3.22-2.43l39.99,23.09
			c1.78,1.03,3.22,3.78,3.22,6.15v29.73C228.52,134.43,227.08,135.52,225.3,134.49z"/>
		<path class="st128" d="M226.28,95.72l-39.99-23.09c-0.97-0.56-1.84-0.47-2.43,0.1c0.44-0.04,0.92,0.06,1.45,0.36l39.99,23.09
			c1.78,1.03,3.22,3.78,3.22,6.15v29.73c0,1.07-0.3,1.86-0.79,2.33c1.05-0.1,1.77-1.12,1.77-2.79v-29.73
			C229.5,99.5,228.06,96.75,226.28,95.72z"/>
		<g>
			<g>
				<g>
					<g>
						<path class="st136" d="M201.73,101.45c-0.16-0.08-0.29-0.02-0.3,0.13c-0.01,0.15,0.11,0.33,0.26,0.41l0.95,0.47
							c0.16,0.08,0.29,0.02,0.3-0.13c0.01-0.15-0.11-0.33-0.27-0.41L201.73,101.45z M201.73,101.45"/>
						<path class="st136" d="M206.38,101.64c0.01-0.15-0.11-0.33-0.27-0.41l-7.92-3.8c-0.16-0.07-0.29-0.02-0.3,0.13
							c-0.01,0.14,0.11,0.32,0.26,0.4l7.92,3.83C206.24,101.85,206.37,101.79,206.38,101.64L206.38,101.64z M206.38,101.64"/>
						<path class="st136" d="M198.05,99.64c-0.16-0.08-0.29-0.02-0.3,0.12c-0.01,0.14,0.11,0.32,0.26,0.4l2.47,1.22
							c0.16,0.08,0.29,0.02,0.3-0.13c0.01-0.15-0.11-0.33-0.27-0.4L198.05,99.64z M198.05,99.64"/>
					</g>
				</g>
				<g>
					<g>
						<path class="st136" d="M201.63,108.95c-0.02-0.08-0.03-0.17-0.04-0.25l-4.85-2.54l-0.01,0c-0.9-0.48-1.58-1.52-1.53-2.34
							l0.79-12.92c0.05-0.83,0.82-1.18,1.71-0.79l6.49,2.85l-0.14,2.55c-0.06,1.16,0.86,2.56,2.06,3.12l0.01,0.01l2.64,1.22
							l-0.23,4.6c0.19,0.1,0.38,0.2,0.56,0.32l0.25-4.87l0-0.08c0-0.07-0.02-0.16-0.07-0.24l-4.56-6.87
							c-0.04-0.06-0.1-0.12-0.17-0.15l-0.1-0.05c-0.01,0-0.02-0.01-0.03-0.01l-6.67-2.91c-1.2-0.53-2.24-0.05-2.3,1.07l-0.79,12.88
							c-0.03,0.53,0.17,1.16,0.56,1.75c0.39,0.59,0.93,1.09,1.51,1.4l0.01,0.01l5,2.63C201.68,109.19,201.66,109.07,201.63,108.95z
							 M208.4,99.11l-2.25-1.04c-0.9-0.41-1.59-1.45-1.54-2.32l0.12-2.17L208.4,99.11z"/>
					</g>
				</g>
				<path class="st128" d="M212.2,107.61c-2.09-2.75-5.1-4.32-7.48-3.98c-2.39,0.31-3.63,2.43-3.08,5.31
					c0.59,3.08,3.04,6.37,5.99,7.99c2.77,1.52,5.33,1.12,6.36-1.02C215.01,113.76,214.29,110.4,212.2,107.61z M207.65,116.27
					c-3.2-1.75-5.64-5.62-5.45-8.63c0.19-3.01,2.91-4.19,6.09-2.62c3.18,1.57,5.63,5.44,5.46,8.64
					C213.58,116.85,210.85,118.02,207.65,116.27z"/>
				<g>
					<path class="st128" d="M203.87,108.76c0.07-1.17,1.1-1.59,2.35-0.95c0.65,0.33,1.24,0.91,1.6,1.56
						c0.07,0.14,0.1,0.23,0.09,0.32c-0.01,0.16-0.16,0.23-0.33,0.14c-0.1-0.05-0.19-0.14-0.26-0.27c-0.29-0.52-0.67-0.9-1.13-1.14
						c-0.88-0.45-1.56-0.15-1.61,0.71c-0.05,0.86,0.56,1.84,1.44,2.3c0.46,0.24,0.86,0.27,1.19,0.07c0.08-0.05,0.17-0.04,0.28,0.01
						c0.17,0.09,0.31,0.3,0.3,0.46c0,0.08-0.04,0.14-0.13,0.2c-0.4,0.25-1.02,0.19-1.68-0.16
						C204.72,111.36,203.8,109.93,203.87,108.76z"/>
					<path class="st128" d="M212.32,111.26c0,0.06-0.03,0.11-0.06,0.16l-1.73,2.79c-0.07,0.12-0.19,0.14-0.34,0.05
						c-0.15-0.08-0.25-0.21-0.31-0.4l-1.33-4.35c-0.03-0.09-0.04-0.16-0.04-0.21c0.01-0.18,0.17-0.24,0.35-0.15
						c0.15,0.08,0.26,0.22,0.31,0.4l1.09,3.67l1.42-2.38c0.07-0.12,0.18-0.15,0.33-0.07C212.19,110.86,212.33,111.09,212.32,111.26z
						"/>
				</g>
			</g>
		</g>
	</g>
	<g>
		<g class="st139">
			<path class="st132" d="M192.47,157.82l-40.17-22.76c-0.8-0.45-1.17-1.06-1.19-1.7c0,0-0.02,0.02-0.02,0.02l-0.03-4.48
				c0,0,1.41,1.16,2.24,1.84l25.1-14.76c2.04-1.2,5.14-1.36,6.93-0.34l38.4,21.76l2.95-1.73l0.04,4.52l-0.02-0.01
				c-0.01,0.78-0.56,1.59-1.66,2.24l-25.63,15.07C197.36,158.68,194.26,158.83,192.47,157.82z"/>
			<path class="st132" d="M225.46,133.84l-40.17-22.76c-1.79-1.01-4.89-0.86-6.93,0.34l-25.63,15.07c-2.04,1.2-2.25,2.99-0.47,4.01
				l40.17,22.76c1.79,1.01,4.89,0.86,6.93-0.34l25.63-15.07C227.03,136.64,227.24,134.85,225.46,133.84z"/>
			<path class="st128" d="M192.53,154.34l-40.17-22.76c-0.98-0.55-1.34-1.34-1.14-2.14c0.18,0.4,0.52,0.77,1.04,1.07l40.17,22.76
				c1.78,1.01,4.89,0.86,6.93-0.34l25.63-15.07c0.92-0.54,1.45-1.21,1.61-1.86c0.44,0.95-0.07,2.09-1.51,2.94l-25.63,15.07
				C197.42,155.2,194.32,155.35,192.53,154.34z"/>
		</g>
		<g class="st140">
			<g>
				<g>
					<g>
						<path class="st136" d="M187.59,131.78c0.13,0.09,0.31,0.09,0.38-0.01c0.08-0.09,0.03-0.24-0.11-0.33l-0.82-0.54
							c-0.13-0.09-0.3-0.08-0.38,0.01c-0.08,0.09-0.03,0.24,0.1,0.33L187.59,131.78z M186.77,131.24"/>
						<path class="st136" d="M189.7,135.24c0.08-0.09,0.03-0.25-0.11-0.35l-6.86-4.56c-0.13-0.08-0.3-0.07-0.38,0.01
							c-0.08,0.09-0.03,0.22,0.1,0.3l6.86,4.58C189.45,135.32,189.63,135.33,189.7,135.24L189.7,135.24z M189.7,135.24"/>
						<path class="st136" d="M185.73,130.57c0.13,0.08,0.3,0.08,0.38-0.01c0.08-0.09,0.03-0.24-0.1-0.32l-2.09-1.28
							c-0.13-0.08-0.3-0.07-0.37,0.02c-0.08,0.09-0.03,0.23,0.1,0.3L185.73,130.57z M183.64,129.29"/>
					</g>
				</g>
				<g>
					<g>
						<path class="st136" d="M190.96,126.31l-4.15-2.42l-0.01,0c-0.47-0.26-1.03-0.35-1.56-0.26c-0.53,0.08-0.98,0.34-1.26,0.7
							l-7.1,7.75c-0.64,0.58-0.34,1.54,0.67,2.18l5.78,3.97c0.01,0.01,0.02,0.01,0.03,0.02l0.09,0.06c0.06,0.04,0.13,0.06,0.19,0.07
							l6.81,0.72c0.07,0.01,0.14-0.01,0.18-0.06l0.04-0.05l2.43-2.98c-0.18-0.11-0.36-0.23-0.53-0.36l-2.31,2.82l-2.38-1.81
							l-0.01-0.01c-1.07-0.78-2.43-0.85-3.05-0.21l-1.37,1.37l-5.61-3.83c-0.76-0.48-0.98-1.2-0.5-1.63l7.09-7.79
							c0.43-0.56,1.36-0.71,2.1-0.31l0.01,0l4.03,2.36c0.05-0.04,0.1-0.09,0.15-0.13C190.81,126.43,190.88,126.37,190.96,126.31z
							 M184.17,137.97l1.17-1.17c0.46-0.48,1.48-0.42,2.28,0.17l2.03,1.54L184.17,137.97z"/>
					</g>
				</g>
				<path class="st128" d="M201.9,133.87c0.3-2.67-1.19-5.7-3.64-7.4c-2.55-1.66-5.61-1.57-7.53,0.02
					c-1.83,1.41-2.25,3.78-0.98,6.07c1.3,2.4,4.08,4.38,6.89,4.87C199.46,137.92,201.59,136.5,201.9,133.87z M200.67,135.18
					c-1.44,2.3-5.04,2.13-7.94-0.1c-2.83-2.04-3.84-5.16-2.35-7.23c1.45-2.17,4.81-2.66,7.58-0.85
					C200.8,128.98,202.06,132.76,200.67,135.18z"/>
				<g>
					<path class="st128" d="M195.01,128.47c0.58,0.39,0.99,0.96,1.12,1.52c0.03,0.13,0.02,0.21-0.02,0.26
						c-0.07,0.12-0.26,0.13-0.42,0.02c-0.1-0.07-0.16-0.16-0.18-0.27c-0.11-0.45-0.37-0.82-0.77-1.1c-0.77-0.51-1.63-0.42-2.04,0.2
						c-0.41,0.61-0.15,1.44,0.62,1.97c0.41,0.29,0.84,0.41,1.29,0.34c0.11-0.01,0.21,0.01,0.3,0.08c0.15,0.11,0.22,0.3,0.14,0.41
						c-0.04,0.06-0.1,0.09-0.22,0.12c-0.55,0.07-1.22-0.13-1.8-0.53c-1.1-0.76-1.5-1.96-0.94-2.78
						C192.65,127.87,193.92,127.75,195.01,128.47z"/>
					<path class="st128" d="M198.25,135.36c-0.14-0.11-0.2-0.24-0.19-0.4l0.24-3.07l-2.52,1.34c-0.12,0.07-0.26,0.05-0.4-0.05
						c-0.17-0.12-0.23-0.32-0.15-0.44c0.03-0.04,0.07-0.07,0.13-0.1l3-1.58c0.12-0.07,0.26-0.06,0.39,0.04
						c0.14,0.1,0.2,0.23,0.19,0.39l-0.21,3.7c0,0.07-0.01,0.13-0.04,0.17C198.62,135.5,198.42,135.5,198.25,135.36z"/>
				</g>
			</g>
		</g>
	</g>
	<g>
		<polygon class="st128" points="159.28,160.95 209.83,131.76 206.6,129.9 156.05,159.09 		"/>
		<polygon class="st128" points="194.45,152.44 220.05,137.66 216.82,135.8 191.22,150.58 		"/>
		<polygon class="st128" points="182.03,159.61 190.33,154.82 187.1,152.96 178.8,157.75 		"/>
		<polygon class="st125" points="169.49,166.85 177.8,162.06 174.57,160.2 166.27,164.99 		"/>
		<polygon class="st125" points="194.16,146.71 214.94,134.71 211.71,132.85 190.94,144.85 		"/>
		<polygon class="st128" points="168.8,161.35 189.58,149.36 186.35,147.49 165.58,159.49 		"/>
		<path class="st138" d="M184.19,135.71c1.04,0.6,2.73,0.6,3.76,0c1.04-0.6,1.04-1.57,0-2.17c-1.04-0.6-2.73-0.6-3.76,0
			S183.15,135.11,184.19,135.71z"/>
		<path class="st128" d="M178.56,138.96c1.04,0.6,2.73,0.6,3.76,0c1.04-0.6,1.04-1.57,0-2.17s-2.73-0.6-3.76,0
			S177.52,138.36,178.56,138.96z"/>
		<path class="st138" d="M172.93,142.21c1.04,0.6,2.73,0.6,3.76,0c1.04-0.6,1.04-1.57,0-2.17c-1.04-0.6-2.73-0.6-3.76,0
			S171.9,141.61,172.93,142.21z"/>
		<path class="st128" d="M167.31,145.45c1.04,0.6,2.73,0.6,3.76,0c1.04-0.6,1.04-1.57,0-2.17c-1.04-0.6-2.73-0.6-3.76,0
			S166.27,144.85,167.31,145.45z"/>
		<path class="st125" d="M161.68,148.7c1.04,0.6,2.73,0.6,3.76,0c1.04-0.6,1.04-1.57,0-2.17c-1.04-0.6-2.73-0.6-3.76,0
			C160.64,147.13,160.64,148.1,161.68,148.7z"/>
	</g>
</g>
</svg>
