<svg xmlns="http://www.w3.org/2000/svg" viewBox="0 0 512 512" fill="#ff5c5c">
  <path d="M376 33c-60.659 0-99.595 42.012-120 79.849C235.595 75.011 196.659 33 136 33 59.037 33 0 95.446 0 178.268c0 21.61 4.327 41.561 12.294 60.732h114.434l25.854-51.709c5.098-10.166 21.738-10.166 26.836 0L226 280.456l16.582-33.164c5.098-10.166 21.738-10.166 26.836 0L286 280.456l46.582-93.164c5.098-10.166 21.738-10.166 26.836 0L385.272 239h114.434C507.673 219.829 512 199.878 512 178.268 512 95.446 452.963 33 376 33z"/>
  <path d="M376 269a15.006 15.006 0 0 1-13.418-8.291L346 227.545l-46.582 93.164A15.006 15.006 0 0 1 286 329a15.006 15.006 0 0 1-13.418-8.291L256 287.545l-16.582 33.164c-5.098 10.166-21.738 10.166-26.836 0L166 227.545l-16.582 33.164A15.006 15.006 0 0 1 136 269H28.037c30.873 48.574 86.474 94.713 156.024 153.413 19.526 16.479 40.298 34.014 62.109 52.925 2.827 2.446 6.328 3.662 9.829 3.662s7.002-1.216 9.829-3.662c21.812-18.911 42.583-36.445 62.109-52.925 69.551-58.7 125.151-104.839 156.024-153.413H376z"/>
</svg>
